/* XPM */
static char *_5b728c816b64aeb9f9bdaa91282453d8Xv5AM2PvpSPvkOr[] = {
/* columns rows colors chars-per-pixel */
"64 64 233 2 ",
"   c #251C1F",
".  c #271E22",
"X  c #281F23",
"o  c #2B1F32",
"O  c #2B2126",
"+  c #2E2429",
"@  c #31262B",
"#  c #342A2E",
"$  c #2D2134",
"%  c #2F2339",
"&  c #362C31",
"*  c #392E32",
"=  c #32253B",
"-  c #35283E",
";  c #342737",
":  c #3D3135",
">  c #3E333A",
",  c #423436",
"<  c #42363A",
"1  c #45393C",
"2  c #493B3C",
"3  c #4D433E",
"4  c #372941",
"5  c #3A2C44",
"6  c #3E2F49",
"7  c #3E3145",
"8  c #3F3149",
"9  c #4A3E41",
"0  c #43334C",
"q  c #473948",
"w  c #4B3B53",
"e  c #463651",
"r  c #543D52",
"t  c #4E4144",
"y  c #4E414A",
"u  c #524445",
"i  c #53454A",
"p  c #5A4D4E",
"a  c #574A4A",
"s  c #5D504A",
"d  c #4E4054",
"f  c #5B4C52",
"g  c #564658",
"h  c #5E5152",
"j  c #624B59",
"k  c #635355",
"l  c #695B5B",
"z  c #685558",
"x  c #725658",
"c  c #74674A",
"v  c #664D65",
"b  c #6A5667",
"n  c #68457C",
"m  c #76447A",
"M  c #775878",
"N  c #6F556E",
"B  c #6F6261",
"V  c #756567",
"C  c #7A6777",
"Z  c #7D706F",
"A  c #877950",
"S  c #8E4F74",
"D  c #A8477B",
"F  c #B84B7D",
"G  c #8A6367",
"H  c #887B7B",
"J  c #86657B",
"K  c #A66976",
"L  c #D34E7E",
"P  c #E2537E",
"I  c #928852",
"U  c #A49D4F",
"Y  c #A59D51",
"T  c #ABA354",
"R  c #ACA556",
"E  c #B2AB5C",
"W  c #A59A66",
"Q  c #9E9464",
"!  c #DEF67C",
"~  c #E3FE75",
"^  c #E2FF6F",
"/  c #664681",
"(  c #6B4B83",
")  c #6A4883",
"_  c #774D83",
"`  c #745484",
"'  c #7C5385",
"]  c #7E548C",
"[  c #775788",
"{  c #77538B",
"}  c #7D6186",
"|  c #824D85",
" . c #874C87",
".. c #974C85",
"X. c #83538C",
"o. c #8B548D",
"O. c #83598F",
"+. c #93548C",
"@. c #9A568D",
"#. c #845B93",
"$. c #8B5A93",
"%. c #865893",
"&. c #975992",
"*. c #A84C83",
"=. c #B44D83",
"-. c #A8558A",
";. c #B85689",
":. c #A75C93",
">. c #B35C94",
",. c #B95F94",
"<. c #99758C",
"1. c #8A6698",
"2. c #966498",
"3. c #907294",
"4. c #A76398",
"5. c #B96699",
"6. c #AF798C",
"7. c #9877A2",
"8. c #9968A0",
"9. c #AB77A5",
"0. c #C85587",
"q. c #DB5B8C",
"w. c #D65889",
"e. c #C95C91",
"r. c #D45D91",
"t. c #D34F84",
"y. c #E55383",
"u. c #ED5482",
"i. c #E45A86",
"p. c #EE5A86",
"a. c #E35D8C",
"s. c #EE5E8A",
"d. c #E35388",
"f. c #F05B88",
"g. c #E35789",
"h. c #CA6899",
"j. c #DC6493",
"k. c #D66596",
"l. c #CF708D",
"z. c #EE618C",
"x. c #E5648C",
"c. c #F0628D",
"v. c #E46493",
"b. c #ED6492",
"n. c #EC6B94",
"m. c #EC6C9A",
"M. c #E56997",
"N. c #F16492",
"B. c #F26A95",
"V. c #F26E9A",
"C. c #F36D9A",
"Z. c #EC7397",
"A. c #F2719A",
"S. c #F2729B",
"D. c #F27A9E",
"F. c #F279A1",
"G. c #DC7FA4",
"H. c #97878E",
"J. c #A88596",
"K. c #B18A9E",
"L. c #A5989A",
"P. c #A487AA",
"I. c #B58DA6",
"U. c #BC98A9",
"Y. c #AE96B4",
"T. c #B6A7AA",
"R. c #BBA7B6",
"E. c #B8AFAF",
"W. c #9E81A6",
"Q. c #C19DAE",
"!. c #CB97B2",
"~. c #F199B3",
"^. c #EF8EAF",
"/. c #C4A4B4",
"(. c #CCACBC",
"). c #C5AAB8",
"_. c #CBB3BD",
"`. c #C6BABC",
"'. c #D1B2BF",
"]. c #D5CE87",
"[. c #DEF385",
"{. c #DBEB91",
"}. c #E3E68C",
"|. c #D3CCBC",
" X c #DBE3A8",
".X c #E4EEB7",
"XX c #BEACC0",
"oX c #D094C6",
"OX c #E298DA",
"+X c #C5A8C5",
"@X c #CDBBC3",
"#X c #CBB5C6",
"$X c #D1B4C3",
"%X c #D3BCC7",
"&X c #D5BAC9",
"*X c #D6B3CF",
"=X c #EBABD1",
"-X c #E897E4",
";X c #EDA1EA",
":X c #CCC3C4",
">X c #D4C4CB",
",X c #D4CBCC",
"<X c #D7C8CB",
"1X c #D8D2CD",
"2X c #DCCCD3",
"3X c #D6C6D1",
"4X c #DCD4D4",
"5X c #DCD7D7",
"6X c #E3CED6",
"7X c #E4D5DA",
"8X c #E4DBDC",
"9X c #EADCDE",
"0X c #E1D7D7",
"qX c #F0D0D6",
"wX c #E6E2DD",
"eX c #E9E7DB",
"rX c #E5E6CA",
"tX c #E6DCE2",
"yX c #EBDEE3",
"uX c #E6D2E3",
"iX c #ECD2E3",
"pX c #ECE4E4",
"aX c #EDEAE5",
"sX c #EDE6E9",
"dX c #EEEAE9",
"fX c #E6E1E1",
"gX c #F1E5E6",
"hX c #F1E9E7",
"jX c #F2E5E9",
"kX c #F2EEEC",
"lX c #F3F1EE",
"zX c #F2EFF0",
"xX c #F4F1F0",
/* pixels */
"z.c.c.N.N.N.v.e.q.c.N.B.B.b.-.@.:.e.a.b.b.N.N.N.N.N.N.N.N.M.>.0.b.C.B.C.A.A.A.A.A.v.V.A.S.A.m.S.A.A.M.5.k.C.M.v.C.C.x.x.D.6.G s ",
"s.c.s.c.N.N.s.N.a.i.c.N.N.N.r.:.+.+.@.-.-.>.>.e.q.s.N.N.N.N.M.,.,.b.B.B.C.A.A.C.A.S.v.m.A.S.n.A.S.C.C.k.>.k.M.a.C.C.z.x.Z.l.G x ",
"f.c.c.c.N.s.c.N.N.N.c.N.N.N.z.e.@.+.o.o. .+.$.$.&.@.;.e.a.b.N.M.:.-.q.B.B.A.A.A.A.A.m.j.A.A.Z.m.S.C.C.m.h.>.h.q.B.C.b.v.S.K G x ",
"s.f.c.f.z.z.c.N.N.c.c.c.c.c.N.c.r.:.+.+.+. . .X.o.o.$.+.-.0.b.N.e.&.:.k.C.B.A.A.A.A.S.h.n.A.C.b.S.C.C.C.n.,.4.w.B.C.C.a.A.l.G x ",
"p.f.s.s.z.c.c.c.c.c.f.c.c.c.z.z.s.a.,.@.+.%.o.X. .X.X.%.$.&.:.e.j.:.$.@.M.B.A.A.A.A.S.h.5.m.C.b.V.C.C.C.m.k.4.w.B.B.B.n.B.l.G G ",
"p.p.p.y.s.s.s.z.c.z.c.c.c.z.c.z.c.s.s.q.,.-.o.o. .] X.X.%.%.$.1.4.9.2.2.5.Z.S.S.A.A.S.h.:.k.C.C.M.C.C.C.C.b.-.q.c.B.B.B.x.Z.K G ",
"t.f.f.P p.s.z.z.s.z.c.z.c.c.s.c.s.z.c.s.f.g.;.+.X.X.] X.%.%.8.7.+X*X#X+XI.^.D.D.D.A.D.h.2.,.C.C.e.m.A.C.C.n.;.x.N.N.B.B.z.A.K G ",
"F p.f.p.P p.f.z.s.s.z.f.s.z.s.f.s.s.s.s.s.s.s.e.+.X.X.{ %.%.7.uXzXzXkXkXkXkXqX=X^.D.F.h.2.:.M.F.:.n.V.C.C.b.0.v.N.n.B.B.P B.S.K ",
"..L f.p.i.L y.s.s.s.s.s.s.p.z.p.s.s.s.p.z.p.s.p.r.+.O.] ] 1.#XkXdXkXlXzXzXkXxXkXxXqX^.5.8.8.M.k.4.v.B.z.B.B.q.N.N.B.x.b.i.N.m.l.",
"..D y.p.p.y.=.t.i.s.s.p.s.s.s.s.s.s.q.q.q.q.q.s.s.e.o.#.] 7.tXlXxXxXdXlXzXkXkXzXkXzXjX+X9.4.M.4.2.M.m.x.B.n.z.N.b.z.w.i.z.n.Z.l.",
"*...F y.p.p.d.0.=.=.F *.-.D *.D ......+...+.@.-.;.r.@.%.#.Y.kXkXkXzXxXxXzXzXzXzXzXkXzXjX*XI.5.2.4.n.k.j.B.n.z.n.N.r.0.i.c.n.K G ",
"d.t.D F t.p.u.u.i.0.;.0.;.;.=.-...| | | _ m _ X.o.+.o.1.8.3XkXlXxXzXzXzXzXzXzXzXzXxXkXzXzXuXY.7.5.k.4.v.B.x.B.B.v.-.0.z.z.0.J x ",
"y.u.y.t.=.F L y.u.u.p.p.f.s.s.i.r.-. .] ] ] { ] _ ] ] #.P.sXlXkXkXlXzXzXzXzXzXzXzXzXzXkXlXkXdX*X9.9.5.m.A.m.B.A.:.:.x.z.L :.G x ",
"P u.u.u.d.;...D *.D L =.F ;.-.-.;.;.o.X.] ] ] ] ] X.] 1.R.lXkXxXxXkXkXzXzXzXzXzXzXxXzXzXkXlXzXkXiX+X!.^.~.~.~.!.I.h.b.P j.2.J l ",
"F L y.u.u.u.t... . . .| S | o.o.$.o.%.] ] ] ] ] ] #.1.7.8XlXzXzXkXzXzXzXzXzXzXkXzXzXzXzXxXzXkXkXkXkXjXjXjXlXkXkXkXqXZ.w.>.&.J z ",
"m S D y.u.u.u.t...| ' ] ] o.7.Y.+XP.1.%.] O.] ] ] 1.Y.tXkXlXkXzXsX5X0XkXxXxXzXzXzXzXzXzXzXzXxXlXxXxXxXxXxXkXkXkXkXqXl.>.2.2.V k ",
"S m m D P P u.u.0. . .] X.P.gXjXkXhX#X1.#.] 1.1.7.>XdXdXaX4X>X>X7XyX8X@XjXzXzXzXzXzXzXzXzXzXzXlXxXkXlXxXlXlXkXlXaXeX9.1.V x z 9 ",
"m | m m D P u.u.u.=. .X.1.2X6X>X0XkXaXW.1.] 1.Y.sXkXtX4X2XdXxXkXzXkXzXjX:XyXxXzXzXzXzXzXzXzXzXzXzXzXkXlXkXkXdXlXlXpXJ.l k i 9 2 ",
"j | m _ m D y.u.u.d...O.P.7X3X3X'.0XhX+X] 1.7.sXkXaXpXkXlXkXzXkXkXzXxXzXkX2XtXzXxXxXxXzXzXzXzXzXzXzXlXzXkXkXlXkXkXpXH k r 2 1 < ",
"p v m n m m S D *.=.@.$.#X0XkX8X2X`.hXyX7.7.3XzXkXlXkXlXkXlXlXxXzXkXxXzXzXzX4XtXxXxXxXzXzXzXzXzXzXzXzXzXlXlXkXkXkX8XJ p 2 , < , ",
"j j m / n m n m m _ ] 7.pXpXpXdXpX@XfXdXY.Y.zXzXlXkXkXdXlXlXdXzXlXkXxXzXjXsXjX5XsXzXxXxXzXxXzXzXzXzXlXkXlXzXlXkXhX4XG p 2 , , , ",
"k n _ ) n n n n m ) { R.kXlXkX2X#X(.,XzX3X5XzXzXkXlXkX8X,XdXzXzXxXxXxXlXzX8X2XyXfXdXxXzXxXxXzXzXlXdXzXzXlXkXdXkXgX<XB u , , , , ",
"k N | ) n n n n ) ( [ #XdXlXkX@X$X_.`.dXdXdXzXzXlXlXdXwX`.`.5XzXlXxXlXkXlXxX0X3XsXfXzXzXkXxXxXxXzXkXlXlXkXdX5X@X`.@XB 2 , , , , ",
"z b m / / / / / / ( [ R.aXlXdX_.$X$X#XsXzXzXzXzXkXaXdXzX5X5X5X:X4XkXxXlXkXlXzX&X3XsXpXzXxXxXkXkXzXzXzXaX1X,XuXkXaXT.x 2 , , , , ",
"p k M _ ( / n / ( ( [ Y.zXdX5X$X$X$X%XdXxXkXlXlXkXjXjXxXlXeXwXdXsX1X|.pXkXxXxX4X&X7XkXaXzXzXkXzXlXaX4X4XhXlXlXkXaX:XV 3 , , : : ",
"2 j g M ( ( / / / ( ( } pXaXfX).$X$X5XlXxXxXxXjXjXqXqXgXlXlXhXeXdXxX0X|.,X1XpXsX>X7XzXkXkXzXxXzXaX8XpXaXeXhXhXhXaXT.l 3 > > < 1 ",
": u f v ` ( n ( / ( ( [ XXdXfX_.$X$XdXlXlXxXjXiXpXjXkXhXlXlXlXlXxXxXlXxXdX1X|.tX6XkXxXlXxXxXxXjX:X8XaXlXlXkXlXaX`.V s 1 , : < > ",
"* , i f b ` ` n / ( ( [ 3.8XpX2X).@XpXkXlXlXlXkXjXkXhXlXlXlXlXlXkXdXlXlXzXdXfX5XlXxXlXlXxXlXkX<XaXlXkXkXlXkXhXeXZ z i < : : > > ",
"* * , i i f v n / / ( ( [ E.zX5X_._.5XxXxXzXkXkXkXgXjXlXlXlXlXlXrX|.kXlXzXlXlXlXlXlXlXlXlXlX5X8X,X,X,X5X5X5X1XL.B l u 1 : : , , ",
"& , , a a 9 g v N ( n ( [ W.dXlX,X_.7XkXkXlXkXjXyXyXgXkXlXeXeXeX[. XwXaXlXlXlXlXlXlXlXlXlXlXpX5X`.4X|.,X5X:XE.V z k 3 , : , , > ",
"& * 2 k k k j z b M ` / / } fXzXkXfXkXlXxXxXxXjXjXkXjXlXlX.X[.[.~ }.|.eXlXlXlXlXlXlXlXlXlXlXpXlXlXlXkXpX8X1XE.l s t 1 : : : : * ",
"* , i x z p a i d g ` [ ( } XXdXlXkXxXxXxXkXkXkXjXhXkXxXlXhX~ ~ ^ ~ [.{.rXlXlXlXlXlXlXlXlXlXpXlXkXzXxXkXaXwXH.k t > > : : : : # ",
"* : u l z a 1 1 t f f [ { ` 3./.>X7XkXzXkXjXqXyX9XgXkXlXxX.X~ ^ ^ ~  XeXlXlXlXlXlXlXlXlXlXlXwXlXlXlX8X>X0X<XB h 2 < : : : * # * ",
"& # : 3 t 3 : > > t f b [ [ <.(./.(.2XkXkXjXgXgXgXgXgXhXeX{..X.X[.[.eXlXlXlXlXlXlXlXlXlXlXlXwXlXlXzX6XU.2XT.l a 1 < , : : * * # ",
"# * & * * : : * : > y f } 3.`.#X$X*X_.gXxXxXlXlXkXjXhXkXeXlXlXlXrX{.eXlXlXlXlXlXlXlXlXlXlXlXwXlXzXzX=XoX4XH.z t , * : : : # & : ",
"# # & # * * * * # : 9 f C R.fX#X$X$X(.iXxXxXxXlXlXjXhXlXlXlXlXlXzXrXwXxXlXlXlXlXlXlXlXlXlXlXwXaXzXsXOXoX>XB p > * * * * # # & : ",
"# # * # & * * * : : > p b :XzXfX&X$X(.6XxXlXxXxXlXjXkXlXlXlXlXlXlXlXlXxXlXlXlXlXlXlXlXlXlXlXzX8XzXuX-XoXL.l t : & & : : : # & & ",
"# : * # # * * * : : , p V 5XzXzXpX>X(.3XxXxXlXxXxXkXlXlXlXlXlXlXlXlXxXlXlXlXlXlXlXlXlXlXlXlXzX1XzXOX-X+XJ j , : : * * : : & # # ",
"# * # # @ # # & : : 1 h Q sXlXlXdXpX_.<XlXlXlXlXkXgXlXlXlXlXlXlXlXlXlXlXlXlXlXlXzXlXlXzXlXlXlX,XiX;XOXK.l u , : * : * * & & # + ",
"+ @ @ @ @ @ # * : 1 t z L.aXlXaXlXkX$X%XkXlXlXlXgXgXlXlXlXlXlXlXlXlXlXlXxXlXxXxXlXlXlXlXlXlXzXfX*X-XoXN h 1 : # & & & & # # @ + ",
"& * * # @ @ # & : > u l |.dXlXkXkXzX_._.jXlXlXxXlXhXlXlXlXlXlXlXlXlXlXlXlXxXlXyX7X2X6XsXlXlXdXzX:X&XJ.k 9 * & # & & > * & @ + + ",
"# * # + + @ @ @ * : u B 5XdXlXkXkXlX:XT.sXkXxXlXlXlXlXlXlXlXlXlXlXlXlXlXlXlXxX9X>X&X$X$X2XsXxXpX5X,XV f q * @ # @ @ & > & + + @ ",
"@ + + O + + # # # , p Z wXaXlXlXlXlX<X)._.kXlXxXlXlXlXhXkXkXlXlXlXlXlXxXxXlXzXzXyX3X@X@X1X5XwXaX8XH.z y * & @ @ + + & @ @ @ X # ",
"O + O + + @ & & > < h H aXaXkXkXkXlX4X&XR.<XzXlXlXlXkXjXhXkXlXlXlXlXlXlXxXxXxXkXxXkXfXdXkXkXzXfXH.k i * & * * # + & @ + + + @ # ",
". O + + + + & * : < p L.hXhXhXkXkXkX0X&X$XR.<XkXxXxXlXlXhXkXxXhXlXlXkXdXkXaXsXgXkXsXlXlXlXkXdXE.l a > & # & * * @ @ @ @ X + O @ ",
". O + + + + # * > 2 p E.eXhXhXkXhXkX8X<X$X(.U.6XkXlXlXlXhXlXlX0X1XaXaXaXpXsXsX4X2X<X5XkXlXaX:XB p 1 * # @ # & @ @ + @ O + + O X ",
". $ O + + @ q u y y s `.hXkXhXhXkXhX0X6X$X'.(.R.7XkXkXlXkXhXlXlXwXlXaXaXkXkXzXzXzXdX8XlXdX3XC h 7 * & @ @ @ @ + O O O @ @ + O O ",
". O O O + & y f g i h <XeXhXhXhXhXhX9X9X&X(.'.(./.9XlXlXkXhXlXhXeXlXkX8X<X>X>X<X2XdXlXdXwXQ f y : # # + @ @ # # @ # # * * @ O O ",
". O . . O : y d q 7 f 1XwXfXaXpXgXgXaX0X6X_.(.(.(.!.7XkXlXhXlXhXkXlXlXkXkXaX8X4XwXdXlXeXH.l u : * & @ @ @ @ & : @ @ # # # @ O . ",
". .   $ + > y d 8 7 g `.wXwXpXpXaXgXaX4XgX&X(.(.(.(./.9XhXlXlXkXlXlXlXlXlXlXkXdXlXlXdXT.l h 1 : * & + @ + + + @ + + O O O . . . ",
"O . O + # q y q 7 5 8 g 3.`.0XwXwXpXeX1XgX7X(.(./.(.(.).9XlXlXkXdXlXlXlXkXkXlXlXdXdX:XB a 1 : & & # @ @ + O O O O O . . . . O . ",
"O . O + & 1 y 7 7 5 5 7 8 g C E.0XwXpX4XeXeX<X/././.).).).wXhXkXlXlXlXkXlXkXlXlXlXeXH p 3 * & & # + + + O O O O O O O . O + O o ",
". . O O # > q 7 4 4 4 4 7 7 8 d b L.:X4X4XeXpX%X/././././.'.aXhXaXkXkXlXlXlXlXlXaXT.h t : & # # @ + + O O + + O O + O O . + + O ",
". X O O > 1 q - 4 = 4 4 4 4 7 8 0 w g } H.`.5XyX(.!.Q.Q././.$XsXaXkXlXaXaXlXaXaX5XB a 1 * : * # + # # + + + @ + O O O . . O O . ",
"% # & : > 1 7 - = = = 4 - 4 5 5 6 7 8 0 w g C H._./.U.Q.Q.!.Q.|.hXhXaXhXdXlXdXdXH.p a 1 : * : # + + + O O + + O . . O . .   . . ",
"3 t 3 3 > q 4 = % = = = = - 4 4 - 5 5 6 6 8 0 w d v C <.K.Q.Q.Q.|.hXhXhXdXdXdX1Xl p i 3 & # # + + O O O O O @ O O O @ + O .   O ",
"W W W c 3 7 ; = % % % % 4 4 4 % 4 4 4 5 5 5 6 6 0 0 0 e r v M <.K./.|.6X9XeX0XC d g f t # @ + + + O O @ @ @ # O O + @ & +   O # ",
"E E E E s ; ; % $ % % % % % % 4 = 4 = 5 - 5 5 5 5 6 6 6 6 0 w w b U.Q.U.U.J g q e g f t : # + O . O + # @ O     . . O + O O O + ",
"R E R I < ; $ $ $ $ % $ % % % % = = = = = 4 - 5 5 5 5 6 6 6 8 0 v I.Q.Q.I.g w w w g g 9 : # + O . .   + O       .   . . . . O . ",
"R R R I > & # $ $ $ $ $ $ % % % = = = = = 5 - 4 4 4 5 5 5 5 6 8 j I.I.Q.<.0 0 0 e g y 9 * @ O O .     O         . O O   O + + O ",
"T T T T c * % $ O $ $ $ $ $ % % % % = = = = = - = 5 5 4 5 5 5 8 g K.I.K.C 0 0 0 e r y 1 , * + O O     .       O O @ @ O O # # + ",
"T T T T U c : $ $ $ o $ o $ $ $ o % % % = = % - = = = 4 4 5 5 5 g J.K.P.j 5 6 6 0 w h s a 3 , & # @ O @     O O + + O . O @ @ O ",
"U U U U T U c & @ $ $ $ o o o o $ % $ % % % % % = = = 5 - 4 4 5 r 6.J.6.q - 6 6 0 e A ].W c s 3 : @ @ O O     O O O .     O .   ",
"I U U U U U T I 1 & $ $ o o o o o $ $ % % % = % = = = = - 4 4 5 q 6.6.<.< - 4 6 6 e Q }.}.}.Q s 3 * O O O     O     + + O O O . "
};
