/* XPM */
static char *e33efc84a4834f33d2f3b94be2f0e0f0rPD6CSjruE9wuJsR[] = {
/* columns rows colors chars-per-pixel */
"64 64 66 1 ",
"  c #52422A",
". c #645236",
"X c #685436",
"o c #645134",
"O c #625034",
"+ c #604F34",
"@ c #635135",
"# c #665336",
"$ c #625035",
"% c #665335",
"& c #655235",
"* c #645135",
"= c #4F4029",
"- c #5A4A31",
"; c #56462F",
": c #5A4930",
"> c #5C4B31",
", c #615035",
"< c #58482F",
"1 c #5E4D32",
"2 c #604E32",
"3 c #594830",
"4 c #584830",
"5 c #5D4C31",
"6 c #5B4A30",
"7 c #5E4D33",
"8 c #5590A2",
"9 c #5B4B32",
"0 c #5C4A30",
"q c #63AABE",
"w c #66AFC4",
"e c #62A7BC",
"r c #5C4C33",
"t c #5D4C33",
"y c #614F32",
"u c #624F32",
"i c #5F4C31",
"p c #5F4E34",
"a c #BD6187",
"s c #E575A4",
"d c #5E4C32",
"f c #EAA1BF",
"g c #614F35",
"h c gray95",
"j c #EAA8C3",
"k c #EFD4DF",
"l c #EDBFD2",
"z c #E893B6",
"x c #EFDDE4",
"c c #E78AB1",
"v c #EBB1C9",
"b c #604D31",
"n c #614E32",
"m c #C8C8C8",
"M c #EDC6D6",
"N c #ECB6CC",
"B c #5D4D33",
"V c #9FCAD7",
"C c #B8D6DF",
"Z c #88BFCF",
"A c #D0E1E6",
"S c #7EBACC",
"D c #60A4B8",
"F c #645338",
"G c #5E4D31",
"H c #5E4C31",
/* pixels */
" .XXoooO+@.XX#$+oooo@..XX%oooO+@@#XX&oooo*#.OOoo%...#X%&oooO++o=",
"*-;:>>,::<;>121:1:;>>>>34:::53>>>642>>6>:<;;;;;4:2>>34::<>:>>>7;",
"o;88888888888888888888888888888888888888888888888888888888888890",
"o>8qwwwwwwwwwwwwwwwwwwwwwwwwwwwwwwwwwwwwwwwwwwwwwwwwwwwwwwwwe8r2",
"o>8wwwwwwwwwwwwwwwwwwwwwwwwwwwwwwwwwwwwwwwwwwwwwwwwwwwwwwwwww872",
"X>8wwwwwwwwwwwwwwwwwwwwwwwwwwwwwwwwwwwwwwwwwwwwwwwwwwwwwwwwww8t2",
"X28wwwwwwwwwwwwwwwwwwwwwwwwwwwwwwwwwwwwwwwwwwwwwwwwwwwwwwwwww8+y",
"X:8wwwwwwwwwwwwwwwwwwwwwwwwwwwwwwwwwwwwwwwwwwwwwwwwwwwwwwwwww8+u",
"X:8wwwwwwwwwwwwwwwwwwwwwwwwwwwwwwwwwwwwwwwwwwwwwwwwwwwwwwwwww8+i",
".:8wwwwwwwwwwwwwwwwwwwwwwwwwwwwwwwwwwwwwwwwwwwwwwwwwwwwwwwwww8ti",
".:8wwwwwwwwwwwwwwwwwwwwwwwwwwwwwwwwwwwwwwwwwwwwwwwwwwwwwwwwww896",
".>8wwwwwwwwwwwwwwwwwwwwwwwwwwwwwwwwwwwwwwwwwwwwwwwwwwwwwwwwww8r:",
"&>8wwwwwwwwwwwwwwwwwwwwwwwwwwwwwwwwwwwwwwwwwwwwwwwwwwwwwwwwww8p0",
"o>8wwwwwwwwwwwwwwwwwwwwwwwwwwwwwwwwwwwwwwwwwwwwwwwwwwwwwwwwww8.0",
"o1assssssssssssssssssssssssssssssssssssssssssssssssssssssssssa.6",
"Odassssssssssssssssssssssssssssssssssssssssssssssssssssssssssa.:",
"+2assssssssssssssssssssfsssssssssssssssssssssssssssssssssssssag5",
"+2asssssssssssssssssssshsssssssssssssssssssssssssssssssssssssapy",
"O2asssssssssssssssssssjhkssssssssssssssssssssssssssssssssssssapu",
"X1asssssssssssssssssssshlsssssfzlslslzsxjcsssssssssssssssssssapi",
"X>asssssssssssssssssssshljkjsljzhshvshshsssssssssssssssssssssarb",
"X:asssssssssssssssssssshlsljshsshshjshshkssssssssssssssssssssa9u",
"#3asssssssssssssssssssshssljfhsshfhcshszzhlssssssssssssssssssa9n",
"#;asssssssssssssssssssshsjljvksvhlhsshlvjhsssssssssssssssssssa92",
"X:asssssssssssssssssssslvszkcsjszcjsszczjssssssssssssssssssssa72",
"X:assssssssssssssssssssssssssssssssssssssssssssssssssssssssssa+i",
"#:mhhhhhhhhhhhhhhhhhhhhhhhhhhhhhhhhhhhhhhhhhhhhhhhhhhhhhhhhhhmp0",
"$:mhhhhhhhhhhhhhhhhhhhhhhhhhhhhhhhhhhhhhhhhhhhhhhhhhhhhhhhhhhmp0",
"$;mhhhhhhhhhhhhhhhhhhhhhhhhhhhhhhhhhhhhhhhhhhhhhhhhhhhhhhhhhhmr0",
"+:mhhhhhhhhhhhhhhhhhhhhhhhhhhhhhhhhhhhhhhhhhhhhhhhhhhhhhhhhhhm90",
"+>mhhhhhhhhhhhhhhhhhhhhhhhhhhhjhhhhhhhhhhhhhhhhhhhhhhhhhhhhhhm9:",
"+>mhhhhhhhhhhhhhhhhhhhhhhhhhhhlhclxhhhhhhhhhhhhhhhhhhhhhhhhhhm9:",
"+;mhhhhhhhhhhhhhhhhhhhhhhhhhhhshshhhhhhhhhhhhhhhhhhhhhhhhhhhhmp:",
"+;mhhhhhhhhhhhhhhhhhhhhhhhhhhhshzzhhhhhhhhhhhhhhhhhhhhhhhhhhhmp:",
"o;mhhhhhhhhhhhhhhhhhhhhhhhhhhhshhksjhhhhhhhhhhhhhhhhhhhhhhhhhmr:",
"o:mhhhhhhhhhhhhhhhhhhhhhhhhhhhsMflshhhhhhhhhhhhhhhhhhhhhhhhhhm95",
"o>mhhhhhhhhhhhhhhhhhhhhhhhhhhhjNklhhhhhhhhhhhhhhhhhhhhhhhhhhhm+5",
"o>mhhhhhhhhhhhhhhhhhhhhhhhhhhhhhhhhhhhhhhhhhhhhhhhhhhhhhhhhhhm+y",
"%:assssssssssssssszssssssssssssssssssssssssssssszssssssssssssa+u",
".<asssssssssssssslzzssssssssssssssssssssMNssssslzzsssssssssssa+u",
".;assssssssssssssjfcsssssssssssssssfssslclsssssMfcsssssssssssa9n",
"#;asssssssssssssfjlsssssssssssssssshssslsjssssfjlssssssssssssaBn",
"X;asssssssssssssljvsssssssssssssssjhjlshfcssssljvssssssssssssaru",
"&:assssssssssssslkcsssflzsfzlslsfzshsjshvslsfzlkcssssssssssssapu",
"%>assssssssssssslkjkzshsjljzhshsljshshshsshsljljsssssssssssssagu",
"X>assssssssssssslMszjlkvshsshshsljshshshsshsljljsssssssssssssa.6",
"#>asssssssssssssljssjljsshsshfhsljfhshshsfhsljljsssssssssssssa.:",
"$1asssssssssssssljslkjksfksvhlkfjjvhshfhfckfjjxjlssssssssssssa.:",
"+2assssssssssssszjkMsszjcsjszczcsjslvlvhjszcsjskcssssssssssssa$6",
"O2asssssssssssssssssssssssssssssssssssshzzsssssssssssssssssssag0",
"o28wwwwwwwwwwwwwwwwwwwwwwwwwwwwwwwwwwwwhwVwwwwwwwwwwwwwwwwwww8p0",
"o>8wwwwwwwwwwwwwwwwwwwwwwwwwwwwwwwwwwwwCwVwwwwwwwwwwwwwwwwwww8pb",
"+:8wwwwwwwwwwwwwwwwwwwwwwwwwwwwwwwwwwwwZASwwwwwwwwwwwwwwwwwww8p2",
"O;8wwwwwwwwwwwwwwwwwwwwwwwwwwwwwwwwwwwwwwwwwwwwwwwwwwwwwwwwww8+2",
"%48wwwwwwwwwwwwwwwwwwwwwwwwwwwwwwwwwwwwwwwwwwwwwwwwwwwwwwwwww8+2",
"%:8wwwwwwwwwwwwwwwwwwwwwwwwwwwwwwwwwwwwwwwwwwwwwwwwwwwwwwwwww8+u",
"X:8wwwwwwwwwwwwwwwwwwwwwwwwwwwwwwwwwwwwwwwwwwwwwwwwwwwwwwwwww8+u",
"#:8wwwwwwwwwwwwwwwwwwwwwwwwwwwwwwwwwwwwwwwwwwwwwwwwwwwwwwwwww8.u",
".48wwwwwwwwwwwwwwwwwwwwwwwwwwwwwwwwwwwwwwwwwwwwwwwwwwwwwwwwww8pu",
".<8wwwwwwwwwwwwwwwwwwwwwwwwwwwwwwwwwwwwwwwwwwwwwwwwwwwwwwwwww8p0",
".:8ewwwwwwwwwwwwwwwwwwwwwwwwwwwwwwwwwwwwwwwwwwwwwwwwwwwwwwwwD8p0",
"&;88888888888888888888888888888888888888888888888888888888888890",
"o7ppprp7++tBpp.+t999997+@ppp.tppppB$+++tBpppp9+grg.gp97++Fppr9-G",
"=;::6000biun222i00662yH0000buun>>:6000iuu22>0000:5yuu2>:6000uu2 "
};
