/* XPM */
static char *_aad32ea61274056ff034c1445eb5dc3EhbZGPO1mUlcvtbF[] = {
/* columns rows colors chars-per-pixel */
"64 64 250 2 ",
"   c #030403",
".  c #0B0B0C",
"X  c #080807",
"o  c #130D0C",
"O  c #170905",
"+  c #16120D",
"@  c #0D0E11",
"#  c #070F11",
"$  c #140F11",
"%  c #0D1315",
"&  c #0D1517",
"*  c #131314",
"=  c #1B1413",
"-  c #131619",
";  c #14191B",
":  c #1A1A1C",
">  c #181816",
",  c #0E130F",
"<  c #281A19",
"1  c #361D19",
"2  c #2A0E0D",
"3  c #1E211F",
"4  c #29221D",
"5  c #33221D",
"6  c #39241D",
"7  c #191D20",
"8  c #1E2624",
"9  c #2D2524",
"0  c #2B2926",
"q  c #2D2B2B",
"w  c #252625",
"e  c #342423",
"r  c #3B2624",
"t  c #342A25",
"y  c #3B2A25",
"u  c #34252A",
"i  c #332C2C",
"p  c #3B2C2B",
"a  c #34312D",
"s  c #3C312D",
"d  c #2D2C30",
"f  c #342E31",
"g  c #3A2E31",
"h  c #2E3634",
"j  c #343432",
"k  c #3C3432",
"l  c #343A35",
"z  c #3C3A36",
"x  c #3C3C3A",
"c  c #363A39",
"v  c #2F312E",
"b  c #2D1E21",
"n  c #4B1C1B",
"m  c #441A1B",
"M  c #581B18",
"N  c #4A130E",
"B  c #631E19",
"V  c #48251D",
"C  c #58231D",
"Z  c #67251D",
"A  c #4B1C20",
"S  c #442523",
"D  c #4A2524",
"F  c #442B25",
"G  c #4C2A25",
"H  c #432D2C",
"J  c #4A2B2B",
"K  c #532E2B",
"L  c #562A25",
"P  c #44322E",
"I  c #4C332D",
"U  c #54322C",
"Y  c #5B342C",
"T  c #5D392E",
"R  c #423433",
"E  c #423A35",
"W  c #443B39",
"Q  c #4A3835",
"!  c #5D3932",
"~  c #593634",
"^  c #412E30",
"/  c #672A22",
"(  c #712C24",
")  c #64332B",
"_  c #78372D",
"`  c #633C35",
"'  c #673D38",
"]  c #773A35",
"[  c #751C20",
"{  c #3C413B",
"}  c #46433C",
"|  c #56433B",
" . c #63433A",
".. c #6B443C",
"X. c #68473B",
"o. c #72463C",
"O. c #3F4940",
"+. c #4A4C44",
"@. c #4A4F4B",
"#. c #464945",
"$. c #4B524C",
"%. c #49554A",
"&. c #52554C",
"*. c #4D5451",
"=. c #4E5955",
"-. c #555A54",
";. c #5C4942",
":. c #6C4642",
">. c #6D4B42",
",. c #664B45",
"<. c #724C43",
"1. c #794C46",
"2. c #69554A",
"3. c #795246",
"4. c #75544A",
"5. c #7B544B",
"6. c #7D5A4D",
"7. c #745346",
"8. c #7D5C51",
"9. c #775C56",
"0. c #6F5651",
"q. c #576359",
"w. c #79655A",
"e. c #6A6758",
"r. c #5E6E64",
"t. c #656C64",
"y. c #79776A",
"u. c #75756B",
"i. c #8A3337",
"p. c #864539",
"a. c #8D503E",
"s. c #884D46",
"d. c #835A4E",
"f. c #84544A",
"g. c #97594B",
"h. c #835D52",
"j. c #8A5D53",
"k. c #8A5F58",
"l. c #935E54",
"z. c #856255",
"x. c #8A6255",
"c. c #8C655A",
"v. c #8D6A5B",
"b. c #85665B",
"n. c #93655C",
"m. c #926B5D",
"M. c #9A6659",
"N. c #91705F",
"B. c #A26958",
"V. c #AA725E",
"C. c #836C63",
"Z. c #8D6B62",
"A. c #886C67",
"S. c #946C62",
"D. c #9B6E64",
"F. c #966B65",
"G. c #877569",
"H. c #957264",
"J. c #9B7365",
"K. c #94736A",
"L. c #9B746A",
"P. c #9C7A6C",
"I. c #967A6B",
"U. c #897C73",
"Y. c #9B7D73",
"T. c #987E76",
"R. c #A27365",
"E. c #A3756B",
"W. c #A37A6C",
"Q. c #AA7B6D",
"!. c #AA7868",
"~. c #A47C72",
"^. c #AB7D72",
"/. c #A57B74",
"(. c #AE766A",
"). c #A25859",
"_. c #7C887C",
"`. c #898879",
"'. c #9C8176",
"]. c #988579",
"[. c #83816C",
"{. c #A3816E",
"}. c #A48275",
"|. c #AB8374",
" X c #A48479",
".X c #AB8479",
"XX c #A5897C",
"oX c #AC8A7C",
"OX c #AC8976",
"+X c #B28374",
"@X c #B3857A",
"#X c #B38B7D",
"$X c #BA8B7C",
"%X c #B78A77",
"&X c #B3907D",
"*X c #C08D7B",
"=X c #8B8D84",
"-X c #968E85",
";X c #8C9385",
":X c #86938A",
">X c #8C958C",
",X c #8D998D",
"<X c #849584",
"1X c #92948D",
"2X c #929A8D",
"3X c #989588",
"4X c #8E9A91",
"5X c #959D93",
"6X c #979B93",
"7X c #AC8C82",
"8X c #A68E82",
"9X c #B38D82",
"0X c #B98C83",
"qX c #A99589",
"wX c #B59183",
"eX c #BA9384",
"rX c #BC948A",
"tX c #BD9A8B",
"yX c #B99789",
"uX c #BC9B92",
"iX c #AE9C93",
"pX c #97A299",
"aX c #BBA296",
"sX c #9CAAA3",
"dX c #BAAEA5",
"fX c #C29B8C",
"gX c #C59787",
"hX c #C49C92",
"jX c #CA9C94",
"kX c #C38F82",
"lX c #C7A28E",
"zX c #C5A194",
"xX c #CBA395",
"cX c #C4A49A",
"vX c #CCA49A",
"bX c #CAAA9B",
"nX c #D3A99B",
"mX c #D6A38E",
"MX c #CEACA3",
"NX c #C5A9A2",
"BX c #D2ABA2",
"VX c #D6B5A8",
"CX c #D7BDB5",
"ZX c #CDB1A3",
"AX c #E3BAA7",
"SX c #E2B29E",
"DX c #DAC3B5",
"FX c #CCC2B8",
"GX c #E5CABB",
"HX c #E4D6CB",
/* pixels */
": q W z g g W ^ ^ ^ H p p p k p p t y 5 6 | C.I.'.Y.Y.` ` 1.3.H.|.OX#XyXeXgX&X&XoXoX8X].w.I 6 r p p p p p y p i : > > , X   X , ",
". : i k R R R p H R P H R p p p y 5 r Q 2.G.T.'.'.XX .V  .5.h.L.OXOX}.&X&XfX&XOXOXXXK.,.H S y y y p r p H p g 9 > > .     . * = ",
". . > f W W R R R R ^ H g p p p e P | 0.G.'.'.XXoXX.V  .>.<.c.Y.'.OX'.oX9XoXoXqX].w.Q F y y p p p p H ^ p g u = X X     * = : w ",
"* . . < g R W Q Q ^ ^ R R s p p r ,.9.w.G.T.T.Y.7.6 Y 3.4.5.A.Y.}. XoXwXXX8X8XC.| Q t t s u u s p p ^ R H P t o X   X + : 7 0 x ",
". $ o o < k W R Q R R ^ H R p y S 2.9.9.v.v.7. .G U o.8.b.v.Y.Y. XXXOXXX8XU.0.P 6 a s s t t i s p p p R ^ R g = X X , ; > 0 x { ",
"X $ $ . = 9 g W W R W R R g p r S ,.<.:.X.| V V | 6.w.K.K.'.'.'.}.7XoX].A.Q < r s a a s s a u s p p p R R R k u + X , 4 w h x j ",
"@ @ @ @ $ $ b g g W R R g R p 1 S ,.>.! U G G  .o.N.H.I.'.7X'. XoXyXaXb.F 5 y y a y s t t t r r ^ p ^ ^ R ^ R k 4 > > w v a j w ",
"X * - $ % $ $ 7 g g W g R R p 5 I  .! L G V Y <.v.J.{.OX7X}.wXXXqXcXXXF 5 y t a a t t p p y y p p p p R R g k k s a 0 v l l 8 # ",
"# # - - - % - - - u k k p R y 1 ~ | K S D Y ' 5.S.R.}.oXoXwXwX7XuXNX;.4 a a t a a t p p e r y y p p p R R g p k z z z z #.+.q # ",
"# # - - - - - - . : u R g p p y ~ K J D D Y o.x.J.|.{.OX&XOXyXyXNXG.y i t k a t a 4 R p p p r e p p p R R k E E W E #.&.-.q.%.; ",
"X - - & - 7 - ; - . $ u g p p S ~ J J ~ ` ..5.m.W.|.%X#X#XeXwXuXiXW 9 i j a j j u k e e R e s s u p k E W W W E W W } &.&.r.t.{ ",
"# - - & - - - ; : $ o < e r F H G S K ` ..h.F.D.|.+X%X&XtXeXwXcX2.9 k a j a j i p g R u p y y s p k Q W W W W E k k z } &.q.r.q.",
"# - - % - 7 - 7 $ = o $ 1 S r S D D K ` o.n.E.R.{.|.&X&X9X9XMXK.r u k i t s e p p 5 H H r r P t s R W } W W E k k E s z +.=.-.r.",
"X - - % - - - 7 7 = = 1 H S 1 D ` Y ) ..3.J.{.#X%X$XwXfX7XuX7XV S p H R E | | ;.,.h.A.Y.A.R t P R Q W W W z E k R E x l c $.q.r.",
"% - - - - - - 7 : = b ^ ^ m G '  .` o.d.n.Q.$XgXgXeX#XeXuXyX2.~ ,.,.9.C.'.[.}.I./.~. XyXhX'.I P E Q Q W E E E E k W x z h O.q.q.",
"- - - - % $ - - - < u p m K :.<...o.j.m.J.|.OX#X+X@X#X~./.S.Z.K.K.Y. X X X XoXOX X@X.X0XuXNXG.6 Q R W W x W W W W } l { { h { { ",
"7 % - - - - - - : = 6 m ' <.d.1.j.R.W.R.R.R.R.W.^.L./.~./.P.Y.L.L./.7X7X9X#XoX#X#X#XwX9XxXaXbX0.F E E z z } z W W x k q 3 % X   ",
"7 - - - - - & - - = 1 :.:.o.s.R.!.|.+XQ.Q.!.Q.|..X/.^.^.}.~.W.W././.9X0XeXwXwXwX#XOXeXeXzXcXVXzX,.e s z x { x k d b &       X , ",
"7 - - - % & - - = = ' :.Y 1.D.M.!.|.Q.E.E.E.^..X9X9X.X}..X}.W.}./.7X9X0XeXeXwX&X#XoX&XwXtXcXZXDXaX| p k a 4 > =       # # % % * ",
"7 - - - - - - * = ^ ,.A ] f.M.E.R.E.!.J.E.^..X.X0X0X.XOX.X|.}.}./.7XyXrXtXyXwX9XoX#XOX#X&XlXbXZXDXaXP + = X X   . . @ # % % @ $ ",
"7 7 - * - - $ = u ~ A L ] 1.M.E.E.E.E.E.W..X.X9XwXwX9XoXoXoXoXoX7X7XwXyX0X0X9X@X^.^.Q.E.V.OXlXbXVXDXiX+ X + X o # # # # # ; 8 w ",
"7 : - & 7 % $ = H J A L ' s.D.E.E.L.L.E./.~..XoXeXwXyXyX9X#X9X9XoXoXoX%X0X0X9X/.W.J.!.f.a.V.%XlXbXDXDXqX< X X , # & 7 8 w h c x ",
"7 7 - * - $ = < J A A C ] f.F.E.E.F.F.Y.~..X9X9XeXtXfXeXeX#X|.OX.X.X.X^.^.0X/./.D.F.f._ p.B.+X+XgXnXVXGXyX< + 4 d d c c c l l z ",
": : - * - $ = b J A A C ' 1.D.E.E.Z.S.~..X}.oX#XtXzXfXeXeXOXP.Q.W.E.E.E.E./.Y.S.K.k.) Z p.a.g.{.+XlXlXDXGX].t a l h h h l l l a ",
"* 7 & & * , < S J L A M ) ' k.L.L.c.c.L.OXOX&X&X&XfXxX&XeX@Xn.H.m.S.m.n.c.Z.C.9.X.| C C ( p.p.a.V.%X*XmXZXDXw.t j h h l c l x { ",
"7 * * - * o e H K D m C Y ) 1.L.L.c.v.H.W.OXtXtX&XlXgXeX9X0Xc.1.h.h.6.7.:.,.~ ~ F 1 V T L Z _ p.g.V.{.*XmXDXaX} z { { { { { } } ",
"7 - - ; $ = p ~ ` D n L Y L ' F.L.N.H.H.H.OXxXlXeXwXeXeXL.9XY.` I G I F F 6 u e t 4 2 m L / / ( p.a.B.V.*XbXDXw.z } #.O.%.} } } ",
"; - - > = b H ~ :.L V K ` Y ) f.H.P.P.K.v.P.xXzXOX#X}.oXY.K.4.6 1 1 5 5 4 4 9 0 t t O O 6 L L C Z _ a.g.{.*XVX].z } %.#.+.} %.%.",
"% - @ o < y J ! :.K G T X. .` :.S. X|.P.c.c.xXbX}.7XZ.Y.A.H 5 5 e e 9 0 t 9 9 9 b w . X O 1 L C Z Z ( _ g.$XVX].x #.@.@.%.@.%.%.",
"% : * . b F J ! :.' ! ! ..<.] o.z. XoX}.c.d.eXBXP.'.9.| y e u 9 9 9 9 0 0 0 9 9 9 0 * X O O 2 V M M Z _ g.+XVXG.{ #.@.@.$.$.%.+.",
", > > < u J A Y :.:.:.X.7.6.1.1.h./.wX9XP.z.~.MX7X,.6 5 t i w f u t q q d u u u 9 9 + X O O 2 m N B Z p.g.Q.VXw.} +.$.$.%.%.%.%.",
". * < b R J D Y <.5.,.7.8.h.j.f.j.L.yXyXoXF.F.cXMXS 6 p t q d d q q v d d f u u u w 4 + X = 2 V B B Z ( s.E.bXw.} +.*.*.=.=.%.%.",
"= O b y P J S Y <.7.6.6.h.v.x.x.m.H.&XzXyX}.L..XBXZ.1 e u u d d q i f f j d i f i q 0 w w 4 u J M M Z ( s.^.xX2.#.$.*.-.=.-.q.%.",
"O = r ^ U K D Y o.5.z.x.v.m.x.n.R.{.oXaXcXaX XJ.rXzXJ 1 u w d q i i f f f f f j f i f u 0 u u y C M B _ p.+X9X| +.#.=.$.q.-.&.q.",
"O b R I I ~ L Y >.5.z.x.m.m.n.D.|.|.oXyXZXVXzXE.~.BXT.1 t u d f u g f u g j j f f j f u 0 0 i r M M B [ a.*XB.G Q } &.-.%.-.-.q.",
"2 6 I I K U L ~ X.5.x.m.J.J.S.D.}.#XwX&XcXZXVXjX/..XMXK.5 t 9 u u u p f g f f f d f q d u 0 u e n M B ( a.%XOX+XXXe.| %.-.-.%.%.",
"b S Q ~ K Y Y ' o.6.x.m.L.L.L.F.W.wXtXtXuXcXVXVXhX9XyXMXT.u u u i u u f f g u f f f d f q v q p 1 N M ( p.M.*XGXDXCXdX-.+.*.=.=.",
"m S J ~ ~ Y ) ' <.h.k.v.L.L.E.F.P.oXtXzXcXhXbXnXVXxXhXhXMXT.S e i q f i f f g g g g j j j a h i V n N M _ B.*XmXGXCXHX=X#.&.@.*.",
"m J K ~ ~ Y Y ` 1.k.c.S.L.K.D.L.P.}.yXzXxXxXfXlXnXnXnXjXBXMXG.1 0 i d j g g c x x x x l z l j a J n N ( g.*XmXGXGXCXHX=Xx -.*.*.",
"A L K ~ Y Y Y ` 4.z.Z.S.K.S.K.P.'.}.yXhXxXbXfXjXfXjXjXjXjXhXhX9.9 a g c c k c x { x x z k z k g V n o.l.+X*XSXSXDXDXCXe.+.@.@.*.",
"S J K ` ! K Y ' >.h.K.I.F.Z.K.~.}.XX9XrXjXxXxXhX&X&X$X0XjXjXhXuXw.y R } k x x { { c z z R R J K G ..l.!.*XmXAXAXDXHX].x @.+.&.&.",
"D D ! ` ` L Y ..>.8.b.Z.S.K.P.'.oXoXyXrXhXhXtXeX$X$X%X%XgXgXyXhXNXw.Q p Q #.{ } { } W Q K K K K o.f.V.%XkXnXnXVXCXdX-.+.-.-.-.&.",
"V G `  .` K Y >.>.4.9.b.Z.K.P./.OXoXyXhXjXhXrX9X#X|.Q.|.$X0X$XgXrXNX/.0.| k g p p P Q ! ` ~ ' 1.M.R.{.%XkXjXvXVXDX=X&.t.r.u.u.e.",
"V K ! ` Y K T :.7.5.8.h.b.b.D./.}.OXwXtXhXfXrX#X{.!.R.W.^.+X@X0XrXhXuXNXuXT.K.A.w.9.C.Z.F.F.D.E.Q.|.|.+X$X$XfXVXCXU.t.y.u._.`.`.",
"G U ` ` ` Y ` >.4.5.9.8.h.h.S.W./.^.7X0X0XrX0X@XE.J.R.R./.^.^.^.0X0XhXxXjXMXVXBXjXjXuXhXrX0X$XeX%X@X^.^.+X0XgXBXCXU.u.u._.<X,X>X",
"V ! :...` Y ..5.h.9.8.h.h.d.h.n.E./.@X7X9X0X0X/.D.m.H.J.D.E.E./.9X0XjXxXBXBXnXjXBXNXjXjXfX0X&X$X@X%X+X(.Q.kXgXBXCX3Xu._.:X:XpXpX",
"G  .:...` ` :.h.k.h.h.h.h.d.j.j.F.R.^.9X9X0X@X^.D.n.v.N.S.D.L.E.^.0XeXjXvXBXvXvXBXNXjXxXhXgXeXeX$X@X(.!.!.*XkXjXCXiX_.:X,X4XpXpX",
"U ` ....' ..1.8.h.C.k.h.d.d.f.j.n.R.@X9X7X0X0X^.E.H.H.Z.m.F.L.E.^.@X0XxXvXjXvXvXjXjXxXhXfXfXtX&X0X@X|.+X(.^.(.^.NX8X`.,X4XpXsXpX",
"L  .....:.1.0.8.k.A.v.6.5.5.f.d.M.R.OX#X#X.X^.^./.L.L.L.L.K.P.P.}.oX0XjXnXvXcXaXaXuXuXuXtXyXtXyX9XOXOX^.Q.+XR..XcXqX3X2XpXpXsXsX",
"T  .....1.4.1.9.c.Z.S.z.f.f.f.d.v.!.OX%X@XOX^.^./.L.L.L.K.P.P.Y.}.8X9XfXhXzXaXuXiXyXyX0X9XoX&XwX#X|.^.Q.Q.W.S. XaXqX3X2XpXpXpXsX",
"Y ` ..o.<.<.4.5.Z.F.F.c.d.f.f.h.m.W.{.|.+X^.^.E.E.D.S.F.S.S.H.F.P..X#XrXuXhXtXyX0XwXwX9XXX}.XXoXXX}.P.J.W.S.b.}.qX3X2XpXpXpXsXsX",
"` ` ..>.:.:.<.4.k.Z.S.b.x.j.j.j.N.J.!.W.^.^.^.E.D.F.S.Z.c.c.z.j.c.P.^.#XfXtXtXtXeXwXeX#X}.'.'.Y.H.P.P.P.K.8.w.U.3X2XpX2X,XpXpXpX",
".. .X.<.>...<.5.z.v.N.v.x.x.x.x.v.m.m.R./.^.E.D.D.F.n.S.c.k.j.f.j.m.R.|.0XeXeXeX0X$X@X^.P.I.I.K.K.G.C.b.w.y.`.3X,X,X,X4X5X5X5X6X",
"7.o.7.>.....>.5.z.N.N.x.x.h.x.j.d.j.d.M.E.(.E.D.D.F.S.n.F.n.n.k.c.m.m.!.|.OX&X&X$X#X.X/.I.I.K.G.y.w.G.U.].3X6X;X,X,X,X,X,X5X6X6X",
"6.6.5.o...' ..7.z.N.N.v.x.j.x.j.f.f.1.h.D.E.Y.P.D.S.S.F.F.n.n.k.c.n.M.R.Q.OXoX&X&XoX.X'.G.G.G.G.[.].3X3X3X-X>X>X:X,X:X4X,X5X6XpX",
"v.v.d.o...` ' o.z.H.{.H.v.j.x.x.l.s.1.d.n.D.L.L.L.S.v.F.n.n.n.j.h.k.M.R.!.OXOXOX}.'.'.G.y.y.=X-X3X3X=X3X1X6X=X4X:X:X>X,X,X2X2XqX",
"H.S.c.3.o.X.X.o.d.N.{.H.N.N.M.N.M.j.d.6.d.v.v.b.x.x.x.j.h.6.6.8.6.h.l.M.E.^.9XqX].G.y.[.=X;X>X1X>X>X>X1X1X>X>X>X,X:X>X>X4X2X2X2X",
"N.m.c.6.3.o.X.o.z.N.{.{.{.N.N.M.x.x.d.d.6.z.z.h.d.f.5.f.7.6.X.2.7.5.j.n.F./.8XqX[.U.`.;X,X:X:X:X>X>X1X4X>X1X1X>X4X4X4X1X1X,X2X2X",
"v.x.z.f.3...X.o.z.N.{.{.{.H.N.x.x.z.8.6.z.z.z.h.c.5.6.6.o.X.X.X.| X.7.8.b.'.-X`.=X=X:X1X2X>X>X1X>X>X>X>X1X1X2X1X1X1X6X4X2X2X2X>X",
"z.d.5.3.<... .3.z.N.{.{.R.N.x.z.z.8.6.6.6.z.h.6.5.1.7.X.X.7.o.| X. .,.2.w.U.-X`.1X:X=X>X=X1X1X>X,X:X4X>X>X1X>X2X1X6X1X5X5X5X2X2X",
"d.6.o.o...) ..3.x.N.{.{.N.N.x.z.z.z.b.v.v.x.z.6.4.7.7.o.! Y ) `  .I | e.`.;X;X;X:X>X:X=X-X1X1X=X>X>X4X1X2X2X,X,X2X2X6X2X5X5X5XpX",
"o.o.X.X... ...f.x.N.N.N.H.N.N.v.z.w.z.H.P.P.H.v.w.0.2.X.` / / _ o.x.].2X<X`.;X;X=X:X>X>X1X1X1X>X>X>X>X4X2X,X,X2X6X2X5X5X5X5X5XpX",
"d.o.X.X. ._ X.6.x.v.N.[.N.v.x.z.6.6.3.h.S.K.[.N.e.e.X.X.s.s.i.i.i.V.qX`._.`.=X1X:X>X:X:X:X:X>X4X>X1X1X1X,X,X,X2X2X5X5XpX6X5X5XpX",
"v.o.o. . .X.o.o.z.z.v.v.v.v.z.z.w.4.<.<.1.8.b.N.[.[.`.].M.( [ i.i.).].`.<X:X=X1X=X:X:X:X:X:X:X:X1X1X1X4X2X,X,X,X,X2XpXpX6X6XsX6X"
};
