/* XPM */
static char *e95ec99f3db44d6b8f6032028985c2ebW3j5NDnC6IavQnhi[] = {
/* columns rows colors chars-per-pixel */
"128 128 23 1 ",
"  c #4D3E28",
". c #57462C",
"X c #645339",
"o c #6D5A3C",
"O c #735D3C",
"+ c #B75E83",
"@ c #BF6288",
"# c #C7668E",
"$ c #DE729E",
"% c #E776A5",
"& c #F17BAC",
"* c #528C9D",
"= c #5591A3",
"- c #5998AA",
"; c #63A9BE",
": c #67B0C5",
"> c #6BB8CE",
", c #C1C1C1",
"< c gray79",
"1 c #D2D2D2",
"2 c #EAEAEA",
"3 c #F3F3F3",
"4 c #FEFEFE",
/* pixels */
" .......           ..........            ......... .           . ........          .....         ........... ..                 ",
". ooOOOOOOOOOOOoooooooOOOOOoooooOOOOOOOOooooooOOOOOOOOOOOOOooooooooOOOOOOOOOOOOOOOOoOooooOoOOOOOOOoooooooOOOOOOOOOOOOOOoooooOO. ",
".o oXXXXXXXXXooooooXXXXXXoooXoXXXoooXXXXXXXXXXXXXoooooooooXXXXXXXXXoXoooXXXXXooooooXXXXXXXXXXXXoooooXXXXXXXooooooXXXXXXXXXXXX.X ",
" OX    .....X.        ........ ...    .........          .. .......   ....... .                   .......         .. ........XX ",
" OX -=-=-=-=-=-=-=-=-=-=-=-=-=-=-=-=-=-=-=-=-=-=-=-=-=-=-=-=-=-=-=-=-=-=-=-=-=-=-=-=-=-=-=-=-=-=-=-=-=-=-=-=-=-=-=-=-=-=-=-= XO ",
" OX =*=*=*=*=*=*=*=*=*=*=*=*=*=*=*=*=*=*=*=*=*=*=*=*=*=*=*=*=*=*=*=*=*=*=*=*=*=*=*=*=*=*=*=*=*=*=*=*=*=*=*=*=*=*=*=*=*=*=*=* XO ",
" OX.-=-:>:>:>:>:>:>:>:>:>:>:>:>:>:>:>:>:>:>:>:>:>:>:>:>:>:>:>:>:>:>:>:>:>:>:>:>:>:>:>:>:>:>:>:>:>:>:>:>:>:>:>:>:>:>:>:>:>=-=.Xo.",
" OX.=*:;:;:;:;:;:;:;:;:;:;:;:;:;:;:;:;:;:;:;:;:;:;:;:;:;:;:;:;:;:;:;:;:;:;:;:;:;:;:;:;:;:;:;:;:;:;:;:;:;:;:;:;:;:;:;:;:;:;=* Xo.",
" OX.-=>:>:>:>:>:>:>:>:>:>:>:>:>:>:>:>:>:>:>:>:>:>:>:>:>:>:>:>:>:>:>:>:>:>:>:>:>:>:>:>:>:>:>:>:>:>:>:>:>:>:>:>:>:>:>:>:>:>:-= Xo.",
" OX.=*:;:;:;:;:;:;:;:;:;:;:;:;:;:;:;:;:;:;:;:;:;:;:;:;:;:;:;:;:;:;:;:;:;:;:;:;:;:;:;:;:;:;:;:;:;:;:;:;:;:;:;:;:;:;:;:;:;:;=* oo.",
".OX.-=>:>:>:>:>:>:>:>:>:>:>:>:>:>:>:>:>:>:>:>:>:>:>:>:>:>:>:>:>:>:>:>:>:>:>:>:>:>:>:>:>:>:>:>:>:>:>:>:>:>:>:>:>:>:>:>:>:>:-= oo.",
".OX.=*:;:;:;:;:;:;:;:;:;:;:;:;:;:;:;:;:;:;:;:;:;:;:;:;:;:;:;:;:;:;:;:;:;:;:;:;:;:;:;:;:;:;:;:;:;:;:;:;:;:;:;:;:;:;:;:;:;:;=* Xo.",
".Oo.-=>:>:>:>:>:>:>:>:>:>:>:>:>:>:>:>:>:>:>:>:>:>:>:>:>:>:>:>:>:>:>:>:>:>:>:>:>:>:>:>:>:>:>:>:>:>:>:>:>:>:>:>:>:>:>:>:>:>:-= oo.",
".Oo.=*:;:;:;:;:;:;:;:;:;:;:;:;:;:;:;:;:;:;:;:;:;:;:;:;:;:;:;:;:;:;:;:;:;:;:;:;:;:;:;:;:;:;:;:;:;:;:;:;:;:;:;:;:;:;:;:;:;:;=* oO.",
".Oo -=>:>:>:>:>:>:>:>:>:>:>:>:>:>:>:>:>:>:>:>:>:>:>:>:>:>:>:>:>:>:>:>:>:>:>:>:>:>:>:>:>:>:>:>:>:>:>:>:>:>:>:>:>:>:>:>:>:>:-= oO.",
".Oo =*:;:;:;:;:;:;:;:;:;:;:;:;:;:;:;:;:;:;:;:;:;:;:;:;:;:;:;:;:;:;:;:;:;:;:;:;:;:;:;:;:;:;:;:;:;:;:;:;:;:;:;:;:;:;:;:;:;:;=* oO.",
".Oo -=>:>:>:>:>:>:>:>:>:>:>:>:>:>:>:>:>:>:>:>:>:>:>:>:>:>:>:>:>:>:>:>:>:>:>:>:>:>:>:>:>:>:>:>:>:>:>:>:>:>:>:>:>:>:>:>:>:>:-= oO.",
".Oo =*:;:;:;:;:;:;:;:;:;:;:;:;:;:;:;:;:;:;:;:;:;:;:;:;:;:;:;:;:;:;:;:;:;:;:;:;:;:;:;:;:;:;:;:;:;:;:;:;:;:;:;:;:;:;:;:;:;:;=* oO ",
".oo -=>:>:>:>:>:>:>:>:>:>:>:>:>:>:>:>:>:>:>:>:>:>:>:>:>:>:>:>:>:>:>:>:>:>:>:>:>:>:>:>:>:>:>:>:>:>:>:>:>:>:>:>:>:>:>:>:>:>:-= oO.",
".oo =*:;:;:;:;:;:;:;:;:;:;:;:;:;:;:;:;:;:;:;:;:;:;:;:;:;:;:;:;:;:;:;:;:;:;:;:;:;:;:;:;:;:;:;:;:;:;:;:;:;:;:;:;:;:;:;:;:;:;=* XO ",
".oo -=>:>:>:>:>:>:>:>:>:>:>:>:>:>:>:>:>:>:>:>:>:>:>:>:>:>:>:>:>:>:>:>:>:>:>:>:>:>:>:>:>:>:>:>:>:>:>:>:>:>:>:>:>:>:>:>:>:>:-= XO ",
".oo =*:;:;:;:;:;:;:;:;:;:;:;:;:;:;:;:;:;:;:;:;:;:;:;:;:;:;:;:;:;:;:;:;:;:;:;:;:;:;:;:;:;:;:;:;:;:;:;:;:;:;:;:;:;:;:;:;:;:;=* Xo ",
".oX.-=>:>:>:>:>:>:>:>:>:>:>:>:>:>:>:>:>:>:>:>:>:>:>:>:>:>:>:>:>:>:>:>:>:>:>:>:>:>:>:>:>:>:>:>:>:>:>:>:>:>:>:>:>:>:>:>:>:>:-=.Xo ",
".oX.=*:;:;:;:;:;:;:;:;:;:;:;:;:;:;:;:;:;:;:;:;:;:;:;:;:;:;:;:;:;:;:;:;:;:;:;:;:;:;:;:;:;:;:;:;:;:;:;:;:;:;:;:;:;:;:;:;:;:;=* Xo ",
".OX.-=>:>:>:>:>:>:>:>:>:>:>:>:>:>:>:>:>:>:>:>:>:>:>:>:>:>:>:>:>:>:>:>:>:>:>:>:>:>:>:>:>:>:>:>:>:>:>:>:>:>:>:>:>:>:>:>:>:>:-=.XO ",
" OX.=*:;:;:;:;:;:;:;:;:;:;:;:;:;:;:;:;:;:;:;:;:;:;:;:;:;:;:;:;:;:;:;:;:;:;:;:;:;:;:;:;:;:;:;:;:;:;:;:;:;:;:;:;:;:;:;:;:;:;=*.XO ",
" OX.-=>:>:>:>:>:>:>:>:>:>:>:>:>:>:>:>:>:>:>:>:>:>:>:>:>:>:>:>:>:>:>:>:>:>:>:>:>:>:>:>:>:>:>:>:>:>:>:>:>:>:>:>:>:>:>:>:>:>:-=.oO ",
" OX.=*:;:;:;:;:;:;:;:;:;:;:;:;:;:;:;:;:;:;:;:;:;:;:;:;:;:;:;:;:;:;:;:;:;:;:;:;:;:;:;:;:;:;:;:;:;:;:;:;:;:;:;:;:;:;:;:;:;:;=*.oO ",
" OX.#@&%&%&%&%&%&%&%&%&%&%&%&%&%&%&%&%&%&%&%&%&%&%&%&%&%&%&%&%&%&%&%&%&%&%&%&%&%&%&%&%&%&%&%&%&%&%&%&%&%&%&%&%&%&%&%&%&%&%#@.oO ",
" Oo.@+%$%$%$%$%$%$%$%$%$%$%$%$%$%$%$%$%$%$%$%$%$%$%$%$%$%$%$%$%$%$%$%$%$%$%$%$%$%$%$%$%$%$%$%$%$%$%$%$%$%$%$%$%$%$%$%$%$%$@+.oo ",
" Oo.#@&%&%&%&%&%&%&%&%&%&%&%&%&%&%&%&%&%&%&%&%&%&%&%&%&%&%&%&%&%&%&%&%&%&%&%&%&%&%&%&%&%&%&%&%&%&%&%&%&%&%&%&%&%&%&%&%&%&%#@.oo ",
" oX.@+%$%$%$%$%$%$%$%$%$%$%$%$%$%$%$%$%$%$%$%$%$%$%$%$%$%$%$%$%$%$%$%$%$%$%$%$%$%$%$%$%$%$%$%$%$%$%$%$%$%$%$%$%$%$%$%$%$%$@+.oo ",
" oo.#@&%&%&%&%&%&%&%&%&%&%&%&%&%&%&%&%&%&%&%&%&%&%&%&%&%&%&%&%&%&%&%&%&%&%&%&%&%&%&%&%&%&%&%&%&%&%&%&%&%&%&%&%&%&%&%&%&%&%#@.oo ",
" oo.@+%$%$%$%$%$%$%$%$%$%$%$%$%$%$%$%$%$%$%$%$%2%$%$%$%$%$%$%$%$%$%$%$%$%$%$%$%$%$%$%$%$%$%$%$%$%$%$%$%$%$%$%$%$%$%$%$%$%$@+.Xo.",
" oo.#@&%&%&%&%&%&%&%&%&%&%&%&%&%&%&%&%&%&%&%&%43&%&%&%&%&%&%&%&%&%&%&%&%&%&%&%&%&%&%&%&%&%&%&%&%&%&%&%&%&%&%&%&%&%&%&%&%&%#@.Xo.",
" oo.@+%$%$%$%$%$%$%$%$%$%$%$%$%$%$%$%$%$%$%$%$32%$%$%$%$%$%$%$%$%$%$%$%$%$%$%$%$%$%$%$%$%$%$%$%$%$%$%$%$%$%$%$%$%$%$%$%$%$@+.XO.",
" oo.#@&%&%&%&%&%&%&%&%&%&%&%&%&%&%&%&%&%&%&%434343&%&%&%&%&%&%&%&%&%&%&%&%&%&%&%&%&%&%&%&%&%&%&%&%&%&%&%&%&%&%&%&%&%&%&%&%#@.XO.",
" Oo.@+%$%$%$%$%$%$%$%$%$%$%$%$%$%$%$%$%$%$%$%$32%2%$%$%$%$%$%$%$%$%$%$%$%$%$%$%$%$%$%$%$%$%$%$%$%$%$%$%$%$%$%$%$%$%$%$%$%$@+.XO.",
".OX.#@&%&%&%&%&%&%&%&%&%&%&%&%&%&%&%&%&%&%&%&%43&3&%&%&%&%&%&%&%&%&%&%&%&%&%&%&3434%&%&%&%&%&%&%&%&%&%&%&%&%&%&%&%&%&%&%&%#@.XO.",
".Oo.@+%$%$%$%$%$%$%$%$%$%$%$%$%$%$%$%$%$%$%$%$32%2%$%$%$%$%$%23$32%$32%$323$%$32%$%$%$%$%$%$%$%$%$%$%$%$%$%$%$%$%$%$%$%$%$@+.XO ",
".OX.#@&%&%&%&%&%&%&%&%&%&%&%&%&%&%&%&%&%&%&%&%43&343434%&%&34%&343&%43&3&%43&%43&%&%&%&%&%&%&%&%&%&%&%&%&%&%&%&%&%&%&%&%&%#@.XO ",
".OX.@+%$%$%$%$%$%$%$%$%$%$%$%$%$%$%$%$%$%$%$%$32%2%$%23$%$%23$%$32%$323$%$32%$32%$%$%$%$%$%$%$%$%$%$%$%$%$%$%$%$%$%$%$%$%$@+ XO.",
".OX #@&%&%&%&%&%&%&%&%&%&%&%&%&%&%&%&%&%&%&%&%43&3&%&34%&%43&%&%43&%434%&%43&%434%&%&%&%&%&%&%&%&%&%&%&%&%&%&%&%&%&%&%&%&%#@ XO.",
".OX.@+%$%$%$%$%$%$%$%$%$%$%$%$%$%$%$%$%$%$%$%$32%2%$%23$%$32%$%$32%$323$%$32%$3232%$%$%$%$%$%$%$%$%$%$%$%$%$%$%$%$%$%$%$%$@+ XO.",
".oX.#@&%&%&%&%&%&%&%&%&%&%&%&%&%&%&%&%&%&%&%&%43&%&%&34%&%43&%&%43&%434%&%43&%&%&343&%&%&%&%&%&%&%&%&%&%&%&%&%&%&%&%&%&%&%#@ XO.",
".OX @+%$%$%$%$%$%$%$%$%$%$%$%$%$%$%$%$%$%$%$%$32%$%$%23$%232%$%$32%232%$%$32%$3$%$3232%$%$%$%$%$%$%$%$%$%$%$%$%$%$%$%$%$%$@+ Xo.",
".oX #@&%&%&%&%&%&%&%&%&%&%&%&%&%&%&%&%&%&%&%&%43&%4%&34%&343&%&343&343&%&%43&3&34343&%&%&%&%&%&%&%&%&%&%&%&%&%&%&%&%&%&%&%#@ Xo.",
".OX @+%$%$%$%$%$%$%$%$%$%$%$%$%$%$%$%$%$%$%$%$32%$3$%23$3$%2%$3$32%232%$%$32%23$%$32%$%$%$%$%$%$%$%$%$%$%$%$%$%$%$%$%$%$%$@+ Xo.",
".Oo #@&%&%&%&%&%&%&%&%&%&%&%&%&%&%&%&%&%&%&%&%&3&3&%&34%4%&%43&%&34%43&%&%&34%&343&%&%&%&%&%&%&%&%&%&%&%&%&%&%&%&%&%&%&%&%#@ Xo.",
".Oo @+%$%$%$%$%$%$%$%$%$%$%$%$%$%$%$%$%$%$%$%$%23$%$%$32%$%$%$%$%$%$%$%$%$%$%$%$%$%$%$%$%$%$%$%$%$%$%$%$%$%$%$%$%$%$%$%$%$@+ oo.",
".Oo #@&%&%&%&%&%&%&%&%&%&%&%&%&%&%&%&%&%&%&%&%&%&%&%&%&%&%&%&%&%&%&%&%&%&%&%&%&%&%&%&%&%&%&%&%&%&%&%&%&%&%&%&%&%&%&%&%&%&%#@ oO.",
".Oo @+%$%$%$%$%$%$%$%$%$%$%$%$%$%$%$%$%$%$%$%$%$%$%$%$%$%$%$%$%$%$%$%$%$%$%$%$%$%$%$%$%$%$%$%$%$%$%$%$%$%$%$%$%$%$%$%$%$%$@+ oO ",
".Oo 1<434343434343434343434343434343434343434343434343434343434343434343434343434343434343434343434343434343434343434343431<.XO ",
".oo <,32323232323232323232323232323232323232323232323232323232323232323232323232323232323232323232323232323232323232323232<,.XO ",
".oo 1<434343434343434343434343434343434343434343434343434343434343434343434343434343434343434343434343434343434343434343431<.XO ",
" oo <,32323232323232323232323232323232323232323232323232323232323232323232323232323232323232323232323232323232323232323232<,.XO ",
".oX 1<434343434343434343434343434343434343434343434343434343434343434343434343434343434343434343434343434343434343434343431<.XO ",
" oX <,32323232323232323232323232323232323232323232323232323232323232323232323232323232323232323232323232323232323232323232<, XO ",
" oX 1<434343434343434343434343434343434343434343434343434343434343434343434343434343434343434343434343434343434343434343431< XO ",
" oX.<,32323232323232323232323232323232323232323232323232323232323232323232323232323232323232323232323232323232323232323232<, XO ",
" oX.1<434343434343434343434343434343434343434343434343434343434343434343434343434343434343434343434343434343434343434343431< Xo ",
" oX.<,323232323232323232323232323232323232323232323232323232%$323232323232323232323232323232323232323232323232323232323232<, Xo ",
" oX.1<434343434343434343434343434343434343434343434343434343&%434%&%&343434343434343434343434343434343434343434343434343431< Xo ",
" oX.<,3232323232323232323232323232323232323232323232323232323232%$32323232323232323232323232323232323232323232323232323232<, Xo ",
" oX 1<434343434343434343434343434343434343434343434343434343&%43&%434343434343434343434343434343434343434343434343434343431<.Xo ",
" oX <,323232323232323232323232323232323232323232323232323232%$32%$32323232323232323232323232323232323232323232323232323232<,.Xo ",
" oX 1<434343434343434343434343434343434343434343434343434343&%43&%&34343434343434343434343434343434343434343434343434343431<.Xo ",
" oX <,323232323232323232323232323232323232323232323232323232%$323$%$323232323232323232323232323232323232323232323232323232<,.Xo ",
" OX 1<434343434343434343434343434343434343434343434343434343&%43434%&%43434343434343434343434343434343434343434343434343431<.Xo ",
" OX <,323232323232323232323232323232323232323232323232323232%$323232%$%$32323232323232323232323232323232323232323232323232<, Xo ",
" OX 1<434343434343434343434343434343434343434343434343434343&%43&%&%&%43434343434343434343434343434343434343434343434343431< Xo ",
" OX.<,323232323232323232323232323232323232323232323232323232%$3$%232%$3232323232323232323232323232323232323232323232323232<, Xo.",
" OX.1<4343434343434343434343434343434343434343434343434343434%4%4%&%4343434343434343434343434343434343434343434343434343431< oo ",
" OX.<,3232323232323232323232323232323232323232323232323232323$%23232323232323232323232323232323232323232323232323232323232<, oo.",
" OX.1<434343434343434343434343434343434343434343434343434343434343434343434343434343434343434343434343434343434343434343431< oo.",
" OX.<,32323232323232323232323232323232323232323232323232323232323232323232323232323232323232323232323232323232323232323232<, oO.",
" Oo #@&%&%&%&%&%&%&%&%&%&%&%&%&%&%&%&%&%&%&%&%&%&%&%&%&%&%&%&%&%&%&%&%&%&%&%&%&%&%&%&%&%&%&%&%&%&%&%&%&%&%&%&%&%&%&%&%&%&%#@ oO.",
".Oo @+%$%$%$%$%$%$%$%$%$%$%$%$%$%$%$3$%$%$%$%$%$%$%$%$%$%$%$%$%$%$%$%$%$%$%$%$%$%$%$%$%$%$%$%$%$3$%$%$%$%$%$%$%$%$%$%$%$%$@+ oO.",
".oo #@&%&%&%&%&%&%&%&%&%&%&%&%&%&%&3&3&%&%&%&%&%&%&%&%&%&%&%&%&%&%&%&%&%&%&%&%&%434%&%&%&%&%&%&3&3&%&%&%&%&%&%&%&%&%&%&%&%#@ oO.",
".oX @+%$%$%$%$%$%$%$%$%$%$%$%$%$%$%2%$3$%$%$%$%$%$%$%$%$%$%$%$%$%$%$%$%$%$%$%$%$3$%2%$%$%$%$%$%2%$3$%$%$%$%$%$%$%$%$%$%$%$@+ oO.",
".oX #@&%&%&%&%&%&%&%&%&%&%&%&%&%&%4%&%4%&%&%&%&%&%&%&%&%&%&%&%&%&%&%&%&%&%&%&%&34%&3&%&%&%&%&%43&%4%&%&%&%&%&%&%&%&%&%&%&%#@ XO.",
".oX @+%$%$%$%$%$%$%$%$%$%$%$%$%$%$3$%2%$%$%$%$%$%$%$%$%$%$%$%$%$%$%$%$%2%$%$%$%2%$%2%$%$%$%$%$3$%2%$%$%$%$%$%$%$%$%$%$%$%$@+ Xo.",
".oX #@&%&%&%&%&%&%&%&%&%&%&%&%&%&%4%&3&%&%&%&%&%&%&%&%&%&%&%&%&%&%&%&%43&%&%&%&3&%4%&%&%&%&%&%4%&3&%&%&%&%&%&%&%&%&%&%&%&%#@ XO.",
".OX @+%$%$%$%$%$%$%$%$%$%$%$%$%$%23$%2%$%$%$%$%$%$%$%$%$%$%$%$%$%$%$%$32%$%$%$%2%$3$%$%$%$%$%23$%2%$%$%$%$%$%$%$%$%$%$%$%$@+.Xo.",
".OX #@&%&%&%&%&%&%&%&%&%&%&%&%&%&34%&3&%&%&%&%&%&%&%&%&%&%&%&%&%&%&%434343&%&%43&%4%&%&%&%&%&34%&3&%&%&%&%&%&%&%&%&%&%&%&%#@.XO.",
".OX @+%$%$%$%$%$%$%$%$%$%$%$%$%$%23$3$%$%$%$%$%$%$%$%$%$%$%$%$%$%$%$%$32%$32%$32%2%$%$%$%$%$%23$3$%$%$%$%$%$%$%$%$%$%$%$%$@+ XO.",
".OX #@&%&%&%&%&%&%&%&%&%&%&%&%&%&34%4%&%&%&%&%&%&%&%&%&%&%&%&%&%&%&%&%43&%43&%43&3&%&%&%&%&%&34%4%&%&%&%&%&%&%&%&%&%&%&%&%#@.XO.",
" OX.@+%$%$%$%$%$%$%$%$%$%$%$%$%$%232%$%$%$%$%2323$%$%23$32%$32%$%23$%$32%$%$%$323$%$32%$%23$%232%$%$%$%$%$%$%$%$%$%$%$%$%$@+.XO.",
" OX.#@&%&%&%&%&%&%&%&%&%&%&%&%&%&34%4343&%&%43&%4%&34%&343&%43&%&34%&%43&%43&%43&%&%43&%&34%&34%&%&%&%&%&%&%&%&%&%&%&%&%&%#@.oO.",
".OX.@+%$%$%$%$%$%$%$%$%$%$%$%$%$%232%$%23$%$32%$3$%23$%$32%$32%$%23$%$32%$32%$32%$%$32%$%23$%23$%$%$%$%$%$%$%$%$%$%$%$%$%$@+.XO.",
".OX.#@&%&%&%&%&%&%&%&%&%&%&%&%&%&343&%&34%&34%&3&%43&%&%43&%43&%&34%&%43&%43&%43&%&%43&%&34%&34%&%&%&%&%&%&%&%&%&%&%&%&%&%#@.oO ",
".OX.@+%$%$%$%$%$%$%$%$%$%$%$%$%$%23$%$%$3$%2323$%$32%$%$32%$32%$%23$%$32%$32%$32%$%$32%$%23$%23$%$%$%$%$%$%$%$%$%$%$%$%$%$@+.oo ",
".OX.#@&%&%&%&%&%&%&%&%&%&%&%&%&%&34%&%&%4%&34%&%&%43&%&%43&%43&%&34%&%43&%43&%43&%&%43&%&34%&34%&%&%&%&%&%&%&%&%&%&%&%&%&%#@.oo ",
".oX.@+%$%$%$%$%$%$%$%$%$%$%$%$%$%23$%$%$3$%23$%$%$32%$%$32%232%$%23$%232%$32%$32%$%232%$%23$%23$%$%$%$%$%$%$%$%$%$%$%$%$%$@+.oo ",
".oX.#@&%&%&%&%&%&%&%&%&%&%&%&%&%&34%&%&34%434%&%&%43&%&343&343&%434%&343&%43&%43&%4%43&%434%&34%&3&%&%&%&%&%&%&%&%&%&%&%&%#@.oo ",
" oo.@+%$%$%$%$%$%$%$%$%$%$%$%$%$%23$%$%232%$32%$%2%2%$3$32%2%2%2%$3$3$32%$32%232%2%$%2%2%$3$323$%2%$%$%$%$%$%$%$%$%$%$%$%$@+.oo ",
" oo.#@&%&%&%&%&%&%&%&%&%&%&%&%&%&34%4343&%&%&3434%&%43&%&34%&34%&%43&%&3&3&3&3434%&%&34%&%43&%4%4%&%&%&%&%&%&%&%&%&%&%&%&%#@.Xo ",
" oo.@+%$%$%$%$%$%$%$%$%$%$%$%$%$%$3$%23$%$%$%$%$%$%$%$%$%$%$%$%$%$%$%$%23$%23$323$%$%$%$%$%$%$32%$%$%$%$%$%$%$%$%$%$%$%$%$@+.oO ",
" oo.#@&%&%&%&%&%&%&%&%&%&%&%&%&%&%&%&%&%&%&%&%&%&%&%&%&%&%&%&%&%&%&%&%&%&%&%&%43&3&%&%&%&%&%&%&%&%&%&%&%&%&%&%&%&%&%&%&%&%#@.oO ",
" Oo.@+%$%$%$%$%$%$%$%$%$%$%$%$%$%$%$%$%$%$%$%$%$%$%$%$%$%$%$%$%$%$%$%$%$%$%$%$32%$3$%$%$%$%$%$%$%$%$%$%$%$%$%$%$%$%$%$%$%$@+.XO ",
" Oo.-=>:>:>:>:>:>:>:>:>:>:>:>:>:>:>:>:>:>:>:>:>:>:>:>:>:>:>:>:>:>:>:>:>:>:>:>:43>:4:>:>:>:>:>:>:>:>:>:>:>:>:>:>:>:>:>:>:>:-=.XO ",
" Oo.=*:;:;:;:;:;:;:;:;:;:;:;:;:;:;:;:;:;:;:;:;:;:;:;:;:;:;:;:;:;:;:;:;:;:;:;:;32:;3;:;:;:;:;:;:;:;:;:;:;:;:;:;:;:;:;:;:;:;=*.XO ",
" OX.-=>:>:>:>:>:>:>:>:>:>:>:>:>:>:>:>:>:>:>:>:>:>:>:>:>:>:>:>:>:>:>:>:>:>:>:>:>3>:4:>:>:>:>:>:>:>:>:>:>:>:>:>:>:>:>:>:>:>:-=.XO ",
" OX.=*:;:;:;:;:;:;:;:;:;:;:;:;:;:;:;:;:;:;:;:;:;:;:;:;:;:;:;:;:;:;:;:;:;:;:;:;:2:;3;:;:;:;:;:;:;:;:;:;:;:;:;:;:;:;:;:;:;:;=*.XO.",
" oX -=>:>:>:>:>:>:>:>:>:>:>:>:>:>:>:>:>:>:>:>:>:>:>:>:>:>:>:>:>:>:>:>:>:>:>:>:>34:4:>:>:>:>:>:>:>:>:>:>:>:>:>:>:>:>:>:>:>:-=.Xo.",
" oX.=*:;:;:;:;:;:;:;:;:;:;:;:;:;:;:;:;:;:;:;:;:;:;:;:;:;:;:;:;:;:;:;:;:;:;:;:;:;32:;:;:;:;:;:;:;:;:;:;:;:;:;:;:;:;:;:;:;:;=*.Xo.",
" oX -=>:>:>:>:>:>:>:>:>:>:>:>:>:>:>:>:>:>:>:>:>:>:>:>:>:>:>:>:>:>:>:>:>:>:>:>:>:>:>:>:>:>:>:>:>:>:>:>:>:>:>:>:>:>:>:>:>:>:-= oo.",
" OX =*:;:;:;:;:;:;:;:;:;:;:;:;:;:;:;:;:;:;:;:;:;:;:;:;:;:;:;:;:;:;:;:;:;:;:;:;:;:;:;:;:;:;:;:;:;:;:;:;:;:;:;:;:;:;:;:;:;:;=* oo.",
" OX -=>:>:>:>:>:>:>:>:>:>:>:>:>:>:>:>:>:>:>:>:>:>:>:>:>:>:>:>:>:>:>:>:>:>:>:>:>:>:>:>:>:>:>:>:>:>:>:>:>:>:>:>:>:>:>:>:>:>:-= oo.",
".Oo =*:;:;:;:;:;:;:;:;:;:;:;:;:;:;:;:;:;:;:;:;:;:;:;:;:;:;:;:;:;:;:;:;:;:;:;:;:;:;:;:;:;:;:;:;:;:;:;:;:;:;:;:;:;:;:;:;:;:;=* oo.",
" Oo -=>:>:>:>:>:>:>:>:>:>:>:>:>:>:>:>:>:>:>:>:>:>:>:>:>:>:>:>:>:>:>:>:>:>:>:>:>:>:>:>:>:>:>:>:>:>:>:>:>:>:>:>:>:>:>:>:>:>:-= oO.",
".Oo =*:;:;:;:;:;:;:;:;:;:;:;:;:;:;:;:;:;:;:;:;:;:;:;:;:;:;:;:;:;:;:;:;:;:;:;:;:;:;:;:;:;:;:;:;:;:;:;:;:;:;:;:;:;:;:;:;:;:;=* oO.",
".Oo -=>:>:>:>:>:>:>:>:>:>:>:>:>:>:>:>:>:>:>:>:>:>:>:>:>:>:>:>:>:>:>:>:>:>:>:>:>:>:>:>:>:>:>:>:>:>:>:>:>:>:>:>:>:>:>:>:>:>:-= oO.",
".Oo =*:;:;:;:;:;:;:;:;:;:;:;:;:;:;:;:;:;:;:;:;:;:;:;:;:;:;:;:;:;:;:;:;:;:;:;:;:;:;:;:;:;:;:;:;:;:;:;:;:;:;:;:;:;:;:;:;:;:;=* oO.",
".Oo -=>:>:>:>:>:>:>:>:>:>:>:>:>:>:>:>:>:>:>:>:>:>:>:>:>:>:>:>:>:>:>:>:>:>:>:>:>:>:>:>:>:>:>:>:>:>:>:>:>:>:>:>:>:>:>:>:>:>:-=.oO.",
".oo =*:;:;:;:;:;:;:;:;:;:;:;:;:;:;:;:;:;:;:;:;:;:;:;:;:;:;:;:;:;:;:;:;:;:;:;:;:;:;:;:;:;:;:;:;:;:;:;:;:;:;:;:;:;:;:;:;:;:;=*.oO.",
".oX -=>:>:>:>:>:>:>:>:>:>:>:>:>:>:>:>:>:>:>:>:>:>:>:>:>:>:>:>:>:>:>:>:>:>:>:>:>:>:>:>:>:>:>:>:>:>:>:>:>:>:>:>:>:>:>:>:>:>:-=.XO.",
".oo =*:;:;:;:;:;:;:;:;:;:;:;:;:;:;:;:;:;:;:;:;:;:;:;:;:;:;:;:;:;:;:;:;:;:;:;:;:;:;:;:;:;:;:;:;:;:;:;:;:;:;:;:;:;:;:;:;:;:;=*.XO.",
".oo -=>:>:>:>:>:>:>:>:>:>:>:>:>:>:>:>:>:>:>:>:>:>:>:>:>:>:>:>:>:>:>:>:>:>:>:>:>:>:>:>:>:>:>:>:>:>:>:>:>:>:>:>:>:>:>:>:>:>:-=.XO ",
".oX =*:;:;:;:;:;:;:;:;:;:;:;:;:;:;:;:;:;:;:;:;:;:;:;:;:;:;:;:;:;:;:;:;:;:;:;:;:;:;:;:;:;:;:;:;:;:;:;:;:;:;:;:;:;:;:;:;:;:;=*.XO ",
".oX -=>:>:>:>:>:>:>:>:>:>:>:>:>:>:>:>:>:>:>:>:>:>:>:>:>:>:>:>:>:>:>:>:>:>:>:>:>:>:>:>:>:>:>:>:>:>:>:>:>:>:>:>:>:>:>:>:>:>:-=.XO ",
".oX.=*=;:;:;:;:;:;:;:;:;:;:;:;:;:;:;:;:;:;:;:;:;:;:;:;:;:;:;:;:;:;:;:;:;:;:;:;:;:;:;:;:;:;:;:;:;:;:;:;:;:;:;:;:;:;:;:;:;:*=*.XO ",
".OX -=-=-=-=-=-=-=-=-=-=-=-=-=-=-=-=-=-=-=-=-=-=-=-=-=-=-=-=-=-=-=-=-=-=-=-=-=-=-=-=-=-=-=-=-=-=-=-=-=-=-=-=-=-=-=-=-=-=-=-= XO ",
" OX =*=*=*=*=*=*=*=*=*=*=*=*=*=*=*=*=*=*=*=*=*=*=*=*=*=*=*=*=*=*=*=*=*=*=*=*=*=*=*=*=*=*=*=*=*=*=*=*=*=*=*=*=*=*=*=*=*=*=*=* XO ",
" OX........ ..         .......                   . .......   ....... ..          .........    ... ........        .X.....    XO ",
" O.XXXXXXXXXXXXooooooXXXXXXXoooooXXXXXXXXXXXXooooooXXXXXoooXoXXXXXXXXXoooooooooXXXXXXXXXXXXXoooXXXoXoooXXXXXXooooooXXXXXXXXXo o.",
" .XXoooooOOOOOOOOOOOOOOoooooooOOOOOOOoOooooOoOOOOOOOOOOOOOOOOooooooooOOOOOOOOOOOOOooooooOOOOOOOOoooooOOOOOoooooooOOOOOOOOOOOoo .",
"                 .. ...........         .....          ........ .           . .........            ..........           ....... "
};
