/* XPM */
static char *de536acc57c542b2d3d6a94a8aa27cdbqKDn1dxIGgDjwGXF[] = {
/* columns rows colors chars-per-pixel */
"64 64 251 2 ",
"   c #090303",
".  c #170907",
"X  c #32150B",
"o  c #293337",
"O  c #2F241E",
"+  c #47170B",
"@  c #591E09",
"#  c #721708",
"$  c #512B10",
"%  c #752A01",
"&  c #7A380C",
"*  c #6B3B19",
"=  c #763A1A",
"-  c #6A2D07",
";  c #443634",
":  c #7A461B",
">  c #7F430D",
",  c #554132",
"<  c #754D2C",
"1  c #623F42",
"2  c #534D48",
"3  c #715A48",
"4  c #6C6F75",
"5  c #8E1913",
"6  c #843B0B",
"7  c #872917",
"8  c #8A3515",
"9  c #963919",
"0  c #9D200C",
"q  c #A52E1D",
"w  c #9D1A23",
"e  c #963423",
"r  c #AA3230",
"t  c #8C4412",
"y  c #894819",
"u  c #954D1B",
"i  c #994D18",
"p  c #9A541A",
"a  c #894814",
"s  c #A5591C",
"d  c #8A4D22",
"f  c #8B5124",
"g  c #9B5B2A",
"h  c #975626",
"j  c #995938",
"k  c #984E2E",
"l  c #A2492B",
"z  c #A65C27",
"x  c #A84634",
"c  c #A45A36",
"v  c #BA5133",
"b  c #9B6534",
"n  c #9E632C",
"m  c #AA6324",
"M  c #A8662B",
"N  c #A56433",
"B  c #AD6B34",
"V  c #AB6C3B",
"C  c #A66836",
"Z  c #B46C37",
"A  c #AE733D",
"S  c #AC7339",
"D  c #B3743C",
"F  c #BC743B",
"G  c #BB7C3B",
"H  c #B57638",
"J  c #B76B28",
"K  c #AE6118",
"L  c #C37D3C",
"P  c #C5772E",
"I  c #B93E43",
"U  c #8C534E",
"Y  c #BC4B46",
"T  c #B55949",
"R  c #9D7449",
"E  c #9A7249",
"W  c #A86C43",
"Q  c #B86D49",
"!  c #AC7D4C",
"~  c #AA7646",
"^  c #B47542",
"/  c #B47C44",
"(  c #BB7D45",
")  c #B47C4B",
"_  c #BB7D4A",
"`  c #B97448",
"'  c #AB7A58",
"]  c #B27D54",
"[  c #B87855",
"{  c #B46659",
"}  c #A97A65",
"|  c #B1706C",
" . c #8F6F6E",
".. c #C17D43",
"X. c #C27D4A",
"o. c #C5754B",
"O. c #C77A55",
"+. c #CD724B",
"@. c #C46B69",
"#. c #BE823E",
"$. c #C7843D",
"%. c #AA834C",
"&. c #B48245",
"*. c #BB8345",
"=. c #B5834B",
"-. c #BB844C",
";. c #BC8A4D",
":. c #B88948",
">. c #AC8254",
",. c #AB845C",
"<. c #AA875B",
"1. c #B58453",
"2. c #BB8552",
"3. c #B58A54",
"4. c #BC8A53",
"5. c #B3865B",
"6. c #BB845A",
"7. c #B48A5B",
"8. c #BC8C5A",
"9. c #BF9253",
"0. c #BD915B",
"q. c #B59259",
"w. c #AF935B",
"e. c #9A836B",
"r. c #928875",
"t. c #AB8B6B",
"y. c #AB8964",
"u. c #B38B63",
"i. c #BB8C63",
"p. c #B48C6C",
"a. c #B78866",
"s. c #B5946D",
"d. c #B99467",
"f. c #B48B75",
"g. c #B59274",
"h. c #B89672",
"j. c #B5987B",
"k. c #BB9B7B",
"l. c #B99877",
"z. c #AC9075",
"x. c #BEA37C",
"c. c #BAA16F",
"v. c #C38445",
"b. c #C2844C",
"n. c #C38B4C",
"m. c #CA8848",
"M. c #C28552",
"N. c #C38B53",
"B. c #C98C52",
"V. c #C38D5C",
"C. c #CA8B5A",
"Z. c #C98354",
"A. c #D28959",
"S. c #C49254",
"D. c #CB9254",
"F. c #C4925B",
"G. c #CB945B",
"H. c #C89A5C",
"J. c #D2955B",
"K. c #CC8F4F",
"L. c #C78864",
"P. c #C59364",
"I. c #CB9562",
"U. c #CD9A63",
"Y. c #CB9D6B",
"T. c #C3966C",
"R. c #D29A67",
"E. c #C59A78",
"W. c #D59366",
"Q. c #CCA369",
"!. c #D3A56C",
"~. c #C8A678",
"^. c #7A7F88",
"/. c #8B8586",
"(. c #B59D83",
"). c #BA9787",
"_. c #A79386",
"`. c #BBA585",
"'. c #B9A488",
"]. c #BCA893",
"[. c #BFB29C",
"{. c #BBAEA5",
"}. c #BAB7B7",
"|. c #B4B3B2",
" X c #C7A887",
".X c #C5AB94",
"XX c #C4B194",
"oX c #C9B499",
"OX c #D5B797",
"+X c #D0AE88",
"@X c #C8BAA8",
"#X c #D3BCA5",
"$X c #D5BCA9",
"%X c #C5BCBB",
"&X c #CABDBD",
"*X c #C5B8B5",
"=X c #C6AEA1",
"-X c #D2A293",
";X c #DDC29E",
":X c #D7C4AA",
">X c #C7C3BB",
",X c #DDCBB4",
"<X c #D8C6B4",
"1X c #DCD2BB",
"2X c #E3CBB5",
"3X c #E7CFB3",
"4X c #C6BCC4",
"5X c #BEC0C0",
"6X c #CAC3C2",
"7X c #C6C4C5",
"8X c #DACFC4",
"9X c #D6D3CF",
"0X c #E4D5C4",
"qX c #E5DACC",
"wX c #E9D9C9",
"eX c #EADBD2",
"rX c #E6DCD2",
"tX c #E9D4C8",
"yX c #ECE1CC",
"uX c #ECE2D4",
"iX c #EDE5DB",
"pX c #EEEBDB",
"aX c #EDE8D5",
"sX c #F2E8D5",
"dX c #F4EBDC",
"fX c #F4E9DB",
"gX c #F4EBD7",
"hX c #EAE8E6",
"jX c #F5EEE3",
"kX c #F4EBE4",
"lX c #EEF8EC",
"zX c #F6F2E6",
"xX c #F8F3E5",
"cX c #F5F4EC",
"vX c #FAF5ED",
"bX c #F5F9ED",
"nX c #FBFAED",
"mX c #F8FAE7",
"MX c #F5F6F3",
"NX c #F9F7F4",
"BX c #F5FAF5",
"VX c #FBFAF5",
"CX c #F6F6F9",
"ZX c #FBF7FB",
"AX c #F6FBFB",
"SX c #FDFDFA",
"DX c #FAFEFE",
"FX c white",
"GX c #FEFEFE",
"HX c #FEFEFD",
"JX c #FEFEFD",
/* pixels */
"FXFXFXFXFXFXFXFXHXSXSXVXVXSXSXSXSXAXAXZXBXBXMXcXVXVXBXSXSXSXNXHXFXZXFXFXHXFXFXSXSXFXSXFXFXFXFXFXFXFXFXFXFXFXFXFXFXFXFXFXFXFXFXFX",
"FXFXFXFXFXFXFXFXDXDXDXDXDXDXDXSXHXZXZXDXVX,Xk.g.dXVXSXAXBXSXVXVXVXAXSXFXSXFXFXHXFXFXFXFXFXFXFXFXFXFXFXFXFXFXFXFXFXFXFXFXFXFXFXFX",
"FXFXFXFXFXFXFXSXSXSXSXSXAXDXDXSXSXZXCXhX:Xd.` O.l.fXBXBXCXiXeXuXzXcXbXVXAXDXSXSXSXSXFXFXFXFXFXFXFXFXFXFXFXFXFXFXFXFXFXFXFXFXFXFX",
"FXFXFXFXFXHXFXAXAXNXVXnXBXBXBXVXNXcXeX X,./ ` ^ ~ h.j.].(.t.h.d.s.:XsXmXBXSXSXCXSXSXFXFXFXFXFXFXFXFXFXFXFXFXFXFXFXFXFXFXFXFXFXFX",
"FXFXFXFXFXHXSXSXBXVXVXVXBXCXCXcX<X(.t.' ~ ^ ` _ _ 5.5.5.6.8.V.H.A S  XjXCXZXHXSXDXSXFXFXFXFXFXFXFXFXFXFXFXFXFXFXFXFXFXFXFXFXFXFX",
"FXFXFXHXHXVXSXSXMXcXqX,X:X<X$X).y.! ! ' [ ) 1.1.7.a.i.N.Z.M.6.P.N.m ~ wXSXNXVXSXDXSXFXFXFXFXFXFXFXFXFXFXFXFXFXFXFXFXFXFXFXFXFXFX",
"FXFXFXFXHXHXVXVXVX:Xj.5.5.u.' 1.) =.2.] [ =.4.2.7.u.i.4.n.V.V.P.D.B V 2XNXSXVXJXDXSXHXFXFXFXFXFXFXFXFXFXFXFXFXFXFXFXFXFXFXFXFXFX",
"FXFXFXFXHXVXVXVX@X<.=.m ( N.] ! _ 1.] -.:.F.8.F.0.0.0.F.4.F.P.I.S.D.N.,XMXSXVXSXSXHXHXFXFXFXFXFXFXFXFXFXFXFXFXFXFXFXFXFXFXFXFXFX",
"FXSXFXFXZXHXVXpXd.n.m M -.1.1.=.1.5.V.N.~ d b 8.V.I.Y.%.E 5.U.J.U.U.~.yXBXVXVXSXSXFXFXFXFXFXFXHXFXFXSXFXFXFXFXFXFXFXFXFXFXFXFXFX",
"SXFXFXSXSXFXVXqX5.L i ^ 1.3.2.1.4.8.8.V.C H.V.I.V.Q.!.Q.U.Y.Y.Q.Q.~.;XnXAXVXSXSXHXFXFXHXFXFXFXHXFXFXFXFXFXFXFXFXFXFXFXFXFXFXFXFX",
"SXSXFXSXSXSXVXaX7.G u v.2.3.2.8.4.0.0.0.d.P.F.S.V.H.J.H.Q.Q.Y.!.Q.~.OXmXBXVXVXSXVXHXHXHXHXHXFXFXFXSXFXFXFXFXFXFXFXFXFXFXFXFXFXFX",
"SXSXFXSXSXSXSXjXs.:.B *.:.2.8.1.8.S.9.3.0.F.F.!.:.K.N.F.Q.4.U.!.Q.~.+XdXBXVXSXDXHXHXFXVXHXHXFXFXSXSXSXFXFXFXFXFXFXFXFXFXFXFXFXFX",
"SXFXFXFXSXSXSXVX$X' ) M.;.3.1.8.q.0.S.4.V.V.P.d.;.S.V.< E 2.V.W.U.U.~.fXSXBXAXAXSXSXDXSXSXSXFXSXSXSXSXFXFXFXFXFXFXFXFXFXFXFXFXFX",
"SXFXFXFXFXSXFXSXvX$Xa.1.4.3.3.8.0.0.9.v.n.1., $ S.G.T.< W V.Z.C.J.F.~.sXCXSXBXAXAXMXAXAXAXSXVXVXDXSXSXFXFXFXFXFXFXFXFXFXFXFXFXFX",
"FXFXSXFXFXFXFXSXVX1Xp.] 4.3.8.8.H.9.v.m.B.3.< < V.V.L.6.Z.M.n.Z.N.G.~.fXBXVXSXMXVXnXVXSXcXiXvXVXDXSXSXFXFXFXFXFXFXFXFXFXFXFXFXFX",
"SXFXFXFXFXSXFXZXNXrXg.2.4.2.8.F.9.#.n.m.N.3.w.d.~.OX`. XOX+X!.D.n.G.+XkXCXVXvXVX1Xj.oXyXoXg.oXxXSXZXAXSXFXFXFXFXFXFXFXFXFXFXFXFX",
"FXFXFXFXFXFXSXAXAXuXk.2.=.) -.V.b.b.M.6.i. X+XoX3 .   O /.:XOXW.v.C.;XVXZXhX<X].k.T.E.y.7.d.~.yXBXSXZXFXJXJXJXFXFXFXSXSXFXFXFXFX",
"FXFXFXFXSXFXJXJXDXcX.XM.-.:.3.-...( [ p.OXoXOX_.  .   . r.XX.X~.-.I.yXVXNX].p.C > 3.3.j C b.0.2XcXVXAXZXSXVXSXZXFXFXSXSXFXFXFXFX",
"FXFXFXFXFXFXFXJXZXVX$Xa.8.3.q.1.o._ ] .X@XoXoX)., o 2 r.`.x.x.E.>.OXmXVXxX Xp.X.i C ) C ( -.1.,XnXVXVXAXAXAXAXZXSXFXSXDXFXFXFXFX",
"FXFXFXFXFXFXFXJXFXVXfX'.y.7.8.=._ _ d.OXoXXXoXXX].].[.XXt.t.j.'.(.:X6X6X>X].E.f.' y.a.p.a.7.u.@XcXMXMXSXAXBXlXcXSXSXSXSXFXFXFXFX",
"FXFXFXFXFXFXFXFXAXSXBXrX(.8.-.*.v.) P..XoXXXXX].XXx.`.e..X@X@X>X*X*X*X%X*X*X*X*X=X{.{.@X=X@X@X}.5X7X|.^.^././.eXSXSXFXFXFXFXFXFX",
"FXFXFXFXFXFXFXFXSXAXAXCXqXk.7.4._ ` 6.+X X'.`.x.k.h.h.y.l..X@X>X&X&X%X4X%X4X4X4X7X}.>X4X7X&X%X}.}.5X4 o o U | ).cXAXSXZXFXFXFXFX",
"FXFXFXFXFXFXFXFXSXAXZXCXcX1X'.<.2._ W Y.E.k.c.s.s.p.u.<.~ f.:XyXtX%X|.*X%X%X&X&X7X&X7X7X7X4X7X}.5X|.2 o 1 | @.| kXZXAXSXFXFXFXFX",
"FXFXFXFXFXFXFXJXAXDXFXZXBXbXmX:X6.X._ ) 3.7.3.7.,.R ~ / ^ ^ b R ).$XeXiX@X'.(.].=X*X6X&X7X4X4X>X9X^.o o | @.@.| vXZXSXSXFXFXFXFX",
"FXFXFXFXFXFXJXJXJXSXcXbXbXqX'.! B D N.-.-.=.=.) ) W C C B B p C ~ ! y. X~.u.3.C W p.g.j.].{.{.*X}.^.o o U | @..XSXZXAXSXFXFXFXFX",
"FXFXFXFXFXJXSXJXZXBXbXdX'.! ) ..F M / M.-.;.=.*.-._ ` C N c a B ` ) =.>.5.-.;.B B M.2.4.i.a.s.x.jXhX9X|. .).tXNXSXJXSXSXFXFXFXFX",
"FXFXFXHXSXSXJXJXVXVXaX'.' ) v.....D =.M.-.2.-.-.-./ ^ V N g a g D / ) =.N.;.v.S ^ -.M.;.M.-.3.+XbXbXZXCXhXhXMXSXZXSXFXFXFXFXFXFX",
"FXFXHXHXJXFXJXVXVXuXx.%.2.M.Z.M.*.( -.-.2.=.-.4.;.=./ A C g a y D 2.2.V.V.S.D.;.=.N.4.4.2.2.7.,XVXmXCXCXCXCXAXSXSXSXFXFXFXFXFXFX",
"FXFXFXFXDXSXSXVXuXf.! v.L M.V.2.-.D / -.-.M.4.N.=.=.&.D D N p > D 2.4.V.4.F.F.F.4.-.4.8.8.8.,.aXbXbXVXSXAXSXSXZXSXSXFXFXFXFXFXFX",
"FXSXSXSXAXCXBXaXj.] ( m.m.;.;.;.b.B ^ -.2.2.4.4.-.=./ ( / D g & W _ ;.4.4.F.0.4.-.4.;.:.8.7.l.MXAXBXVXSXZXSXAXZXSXFXFXFXFXFXFXFX",
"FXHXSXZXAXMXnX<X>.) _ M.N.;.;.v.Z.g G / -.-.4.4.-./ / *.( ( N - V [ 4.4.4.8.4.4.-.;.:.:.2.u.OXSXDXSXHXHXFXFXFXFXFXFXFXFXFXFXFXFX",
"FXHXVXSXDXBXaX,.1.*.-.n.N.4.:.m.m.t ^ M.M.2.4.N.;.-.*.-.*./ D & h [ 2.;.4.4.4.-.N./ *.=.5.oXfXSXAXSXVXHXFXFXFXFXFXFXFXFXFXFXFXFX",
"SXHXSXSXBXiX'.1.*.b.;.N.n.m.m.m.B t ^ _ =.-.2.4.4.-./ *.b.-.^ b @ ` 2.2.M.;.N.n.b.b.-.5.`.sXBXZXVXVXHXFXFXFXFXFXFXFXFXFXFXFXFXFX",
"SXFXSXSXVX@Xy.-.*.n.N.n.m.m.m.b.- 6 Z -.-.-.4.;.;.M.8._ ;.;.-.` = = b =.4.=.:.&.) A ~ ).iXBXDXSXVXVXHXFXFXFXFXFXFXFXFXFXFXFXFXFX",
"FXSXSXSXmX'.,._ _ b.;.*.v.m.B.Z # t B -.4.;.V.;.M.F.4.=.-.-.*.-.u.@XXXXX`.x.c.x.x..X<XiXVXBXAXVXVXVXVXFXFXFXFXFXFXFXHXFXFXFXFXFX",
"SXSXAXAXyXt.5._ _ b.-.:.#.v.b.u % t B D =.-.-.-.4.F.9.n.;.4.:.N.y.fXVXBXnXxXxXvXNXVXAXSXHXHXHXHXFXHXVXFXFXFXFXFXFXFXFXHXFXFXFXFX",
"FXSXAXAX1Xp.5.=.-.=.-.-.G &.v.% % 6 u B / -.-.n.-.-.N.S.9.9.F.V.i.3XvXVXVXVXHXFXSXDXAXSXSXFXSXFXFXFXFXFXFXFXFXFXFXFXFXHXFXFXFXFX",
"FXDXAXNX8Xt.7.;.:.1.=.=.:.:.*.h - % 6 z F _ X.N.;.;.;.S.F.0.V.D.I.+XdXVXVXBXAXBXBXAXSXSXZXHXFXFXFXFXFXFXFXFXFXFXFXFXFXFXFXFXFXFX",
"SXSXAXCXeXf.u.;.4.3.4.3.=.:.*.*.& % 6 h Z _ ( -.;.n.S.H.H.Y.F.S.S.Y.2XfXVXBXBXBXBXZXSXFXFXSXFXFXFXFXFXFXFXHXHXHXHXHXFXFXFXFXFXFX",
"SXSXAXCXvX].s.<.4.1.1.4.4.:.b.:.M.u 6 6 u B Z v.;.4.n.S.S.U.G.K.D.C.[ ' +XsXmXbXJXZXJXFXFXSXHXFXFXFXFXFXHXHXHXHXSXFXFXFXFXFXFXFX",
"FXFXSXAXBX0X(.<.1.8.1.1.4.;.:.n.-.N.Z & t z Z ^ _ M.2.9.S.N.M.S.J.A.L L =.i.oXdXSXAXZXHXHXVXVXVXDXSXSXFXHXZXSXSXSXFXFXFXFXFXFXFX",
"SXFXZXDXAXbX0Xs.7.=.7.4.4.;.:.n.B.n.J.v.i i l z b.M.-.S.F.N.D.K.n.m.J Z v.b.=.s.wXnXMXSXHXVXBXHXZXSXSXVXVXSXSXSXSXSXFXFXFXFXFXFX",
"SXSXSXSXAXMXmX X7.3.3.3.8.4.4.;.N.D.G.J...i s p D -.=.9.S.N.N.H.b.o.i Z Z.Z.N.=.d.:XfXVXSXBXBXSXDXAXVXVXVXVXSXZXVXHXHXFXFXFXFXFX",
"FXSXSXDXAXCXvX X3.5.5.5.0.0.F.S.n.D.K.D.m.p i z B *.*.n.S.S.n.S.b.P i Z b.v.b.b.M.=. XqXnXBXZXZXBXzXqX:X].:X,XiXNXHXVXVXFXFXFXFX",
"FXSXDXSXSXMX0X>.&.1.3.3.1.V.D.D.m.$.m.m.J m s s M *.&.n.S.:.:.n.m.M i L X.-.v.v.*.2.1.d.$XjXMXMXqX`.p.6.7.d.x. XqXVXSXZXFXFXFXFX",
"SXFXAXSXVXuX'.! ~ %.3.=.=.=.b.B.J $.$.L m s z z B G *.n.v.#.$.m...u i Z _ ( ( ..( _ -.=.>.j.:X,Xp.6.2.M.F.H.H.` E.jXVXJXFXFXFXFX",
"FXSXZXSXSX<Xt.%.A =.=.3.-./ *.m.i P P K s s s J G G #.n.;.$.G ..F 6 i B ` _ X...( =.-./ ! R ,.d.6.O._ M.I.C.A.z { yXVXJXFXFXFXFX",
"FXSXSXSXVXXXy.=.:.=.&.=.;./ D v.P P K K s s s Z m Z ( #.*.#.G F Q @ u c B Z Z S D *.) ~ ` -.;.-.O._ V.P.[ Z.o.# ` 3XVXSXFXFXFXFX",
"FXHXVXSXVX X>.:.:.=.=.&.=.=.-.-.H Z J m p p m m M S B G H S ..C : @ y h N C C C b A / ) _ -.-.=.-.-.I.` l ` L.Q L.0XVXZXFXFXFXFX",
"FXHXSXDXVX.X>.=.:.=.&.=.=.=.*.=.) D D M p s p p h M M C S M z k + + * a d f g b b V S / _ _ _ _ 2.S.R.Q 9 _ I.L.U eXVXSXFXFXFXFX",
"SXSXAXDXBXoX<.;.=.=.=.3.1.=./ ! ) ! ) / :.#.#.M y u h u n g d * X + $ - : f h b b C V A =.) X._ :.H.G.Z.o.J.I.T U iXZXSXFXFXFXFX",
"FXSXSXDXAX1Xg.3.:.-.2.6.1.) ~ &.&.9.n.m.K.n.m.m.&.: d > y < : + . X $ $ - a d g b C V D =.=.) 1.&.;.D.O.T +.+.O.f.NXNXSXFXFXFXFX",
"FXFXSXDXAXhX@X5.:.4.4.3./ ^ &.&.C.Z.Q O.B.Z.+.+.S.< : * = $ $ 2 ; X . + $ * : f b C V ^ *._ [ _ ;.G.A.v Y Y v O.tXZXDXSXFXFXFXFX",
"FXSXSXSXBXVXdXl.<.=.4.*.&./ *.S.W.l e o.o.x v v K.~ < 3 r.[.8XhXhX*Xr.; X $ $ : f g N Z G / ` &.N.A.T r Y r r ).xXCXDXDXFXFXFXFX",
"FXFXSXZXFXCXnX,Xs.3.4.;.-._ 2.S.A.9 7 o.x x Y r m. X@X8XdXnXAXAXZXNXcX*X3 O + * < g N F G G G %.;.A.r r r r x OXnXZXZXSXFXFXFXFX",
"SXDXVXSXSXSXNXVX1Xx.y.%.>.5.P.H.Z.` ` o.r Y I q +.OXxXNXSXDXDXDXFXZXZXZXVX9X|.3 , < j Z ( / &.:.H.` 5 w q e | fXNXSXSXFXFXFXFXFX",
"FXZXSXFXFXSXDXZXbXxX:X,.1.i.V.O.x A.I.c w r r 0 O.:XvXCXAXDXSXFXFXJXSXDXAXSXSXVX8Xe.3 b / ` ` X.M.` 5 # % { 2XCXJXHXFXSXFXFXFXFX",
"SXSXAXSXFXFXFXSXAXCXeXa.2.C.W.9 e o.L.c 5 w 0 9 T.aXVXAXZXSXFXFXJXJXSXFXHXSXDXDXMXzXaX`.R ! ` ( b.Z.j j | 2XxXCXSXHXSXFXFXFXFXFX",
"FXSXFXSXSXFXFXSXSXCXkXf.5.F.B.9 8 Z.Z.W # 5 5 Q  XVXSXDXSXSXHXVXJXFXSXFXFXSXDXDXAXVXMXjX<Xz.} R >.7.i.l.#XjXVXSXVXSXSXSXFXFXFXFX",
"SXFXFXFXSXFXSXSXAXBXcX#X<.q.9.v.Z.X.` Z.d k T z.aXSXDXSXSXFXHXHXFXZXSXFXFXSXZXDXBXSXSXDXAXlXuX>XXX:X0XdXVXBXNXVXVXSXSXSXFXFXFXFX",
"FXFXFXFXFXFXFXSXAXSXVXiX(.<.0.N...8 l Z.4.<.l.uXbXlXZXFXJXJXFXFXFXFXFXFXFXFXFXZXSXSXZXSXZXSXSXVXVXMXBXVXSXCXBXVXSXFXFXFXFXFXFXFX",
"FXFXFXFXSXFXFXZXAXBXAXVX0Xj.,.I.W 7 Q a.`.1XpXBXlXlXZXSXAXZXFXFXFXFXFXFXFXFXSXSXSXSXSXSXSXSXSXAXSXSXCXSXSXSXSXHXHXFXFXFXFXFXFXFX",
"FXFXFXFXSXFXFXHXSXAXZXZXNX$Xz.y.L.| ).:XpXbXBXZXBXAXSXSXAXFXFXFXFXFXFXFXFXFXFXFXFXFXFXFXFXFXFXSXSXSXVXZXFXSXVXHXHXFXFXFXFXFXFXFX",
"FXFXFXFXSXHXFXHXHXSXJXFXSXNXzX2X:XwXjXBXBXSXJXZXHXSXSXSXSXSXFXFXFXFXFXFXFXFXFXFXFXFXFXFXFXFXSXSXSXSXHXFXFXFXFXFXFXFXFXFXFXFXFXFX"
};
